<svg xmlns="http://www.w3.org/2000/svg" xmlns:xlink="http://www.w3.org/1999/xlink" width="961" height="468" viewBox="0 0 961 468">
  <defs>
    <clipPath id="clip-path">
      <rect id="Rectangle_54" data-name="Rectangle 54" width="961" height="468" transform="translate(160 211)" fill="#fff" stroke="#707070" stroke-width="1"/>
    </clipPath>
  </defs>
  <g id="Mask_Group_29" data-name="Mask Group 29" transform="translate(-160 -211)" clip-path="url(#clip-path)">
    <g id="error-404" transform="translate(4.099 211)">
      <g id="freepik--background-complete--inject-13">
        <path id="Path_261" data-name="Path 261" d="M620.443,468H354.427c-4.308,0-7.833-3.035-7.833-6.854V6.756c0-3.721,3.525-6.756,7.833-6.756H620.345c4.308,0,7.833,3.035,7.833,6.854h0V461.146C628.275,464.965,624.751,468,620.443,468ZM354.427.2c-4.112,0-7.539,2.937-7.539,6.56V461.146c0,3.623,3.329,6.56,7.539,6.56H620.345c4.112,0,7.539-2.937,7.539-6.56V6.756c0-3.623-3.329-6.56-7.539-6.56H354.427Z" fill="#ebebeb"/>
        <path id="Path_262" data-name="Path 262" d="M918.377,468H652.361c-4.308,0-7.833-3.035-7.833-6.854V6.756c0-3.721,3.525-6.756,7.833-6.756H918.377c4.308,0,7.833,3.035,7.833,6.854V461.146C926.209,464.965,922.685,468,918.377,468ZM652.361.2c-4.112,0-7.539,2.937-7.539,6.56V461.146c0,3.623,3.329,6.56,7.539,6.56H918.377c4.112,0,7.539-2.937,7.539-6.56V6.756c0-3.623-3.329-6.56-7.539-6.56H652.361Z" fill="#ebebeb"/>
        <path id="Path_263" data-name="Path 263" d="M447.733,135.9l2.252,3.916,4.993.587-3.623,3.133.881,4.308-4.5-2.056-4.406,2.056.881-4.308-3.623-3.133,4.993-.587Z" fill="#ebebeb"/>
        <path id="Path_264" data-name="Path 264" d="M893.508,320.942l2.252,3.916,4.993.685-3.623,3.035.881,4.308-4.5-2.056-4.406,2.056.881-4.308-3.623-3.035,4.993-.685Z" fill="#f5f5f5"/>
        <path id="Path_265" data-name="Path 265" d="M805.293,435.005l2.154,3.916,4.993.685-3.623,3.035.881,4.308-4.406-2.056-4.5,2.056.881-4.308-3.623-3.035,4.993-.685Z" fill="#f5f5f5"/>
        <path id="Path_266" data-name="Path 266" d="M603.309,66.186l.783,1.469,1.86.2a.524.524,0,0,1,.49.49c0,.1-.1.2-.2.294l-1.371,1.175.294,1.567a.62.62,0,0,1-.49.587h-.392l-1.664-.783-1.664.783a.762.762,0,0,1-.783-.2.36.36,0,0,1-.1-.294l.294-1.567L599,68.731a.473.473,0,0,1,0-.685c.1-.1.2-.1.392-.2l1.86-.2.783-1.469a.506.506,0,0,1,.685-.294A.592.592,0,0,1,603.309,66.186Z" fill="#ebebeb"/>
        <path id="Path_267" data-name="Path 267" d="M375.771,416.3l.783,1.469,1.86.2a.548.548,0,0,1,.49.587c0,.1-.1.2-.2.294l-1.371,1.175.294,1.567a.621.621,0,0,1-.49.587h-.392l-1.664-.783-1.664.783a.761.761,0,0,1-.783-.2.36.36,0,0,1-.1-.294l.294-1.567-1.371-1.175a.473.473,0,0,1,0-.685.36.36,0,0,1,.294-.1l1.86-.2.881-1.469a.506.506,0,0,1,.685-.294C375.575,416.109,375.771,416.207,375.771,416.3Z" fill="#f5f5f5"/>
        <path id="Path_268" data-name="Path 268" d="M412.976,50.716l.783,1.469,1.86.2a.548.548,0,0,1,.49.587c0,.1-.1.2-.2.294l-1.371,1.175L414.836,56c.1.294-.1.49-.392.587a.589.589,0,0,1-.392-.1l-1.664-.783-1.664.783a.614.614,0,0,1-.783-.2.36.36,0,0,1-.1-.294l.294-1.567-1.371-1.175a.473.473,0,0,1,0-.685.36.36,0,0,1,.294-.1l1.86-.2.881-1.469a.617.617,0,0,1,.783-.294A.509.509,0,0,1,412.976,50.716Z" fill="#ebebeb"/>
        <path id="Path_269" data-name="Path 269" d="M410.724,339.936a1.692,1.692,0,0,1-1.86,1.567,1.752,1.752,0,0,1-1.86-1.567,1.692,1.692,0,0,1,1.86-1.567h0A1.752,1.752,0,0,1,410.724,339.936Z" fill="#ebebeb"/>
        <path id="Path_270" data-name="Path 270" d="M671.746,140.2a1.692,1.692,0,0,1-1.86,1.567,1.752,1.752,0,0,1-1.86-1.567,1.692,1.692,0,0,1,1.86-1.567h0a1.692,1.692,0,0,1,1.86,1.567Z" fill="#ebebeb"/>
        <path id="Path_271" data-name="Path 271" d="M576.776,52.087a1.692,1.692,0,0,1-1.86,1.567,1.752,1.752,0,0,1-1.86-1.567,1.888,1.888,0,0,1,3.721,0Z" fill="#f5f5f5"/>
        <ellipse id="Ellipse_86" data-name="Ellipse 86" cx="10.085" cy="8.812" rx="10.085" ry="8.812" transform="translate(567.279 423.648)" fill="#f0f0f0"/>
        <path id="Path_272" data-name="Path 272" d="M573.838,427.27a10.75,10.75,0,0,0-5.777,1.664c-2.252,4.5.1,9.693,5.189,11.553a11.159,11.159,0,0,0,9.2-.49h0c2.546-4.21.783-9.4-4.014-11.651a9.97,9.97,0,0,0-4.6-1.077Z" fill="#e6e6e6"/>
      </g>
      <g id="freepik--404--inject-13">
        <path id="Path_273" data-name="Path 273" d="M495.512,279.136H411.7V246.141L495.512,159.3h40.142V248h20.757v31.135H535.556V306.06H495.414V279.136Zm0-31.135V202.669L451.258,248.1h44.254Z" fill="#6c63ff"/>
        <path id="Path_274" data-name="Path 274" d="M570.705,233.413q0-41.121,17.036-57.57t51.793-16.449c11.162,0,20.267,1.175,27.414,3.623a53.826,53.826,0,0,1,17.526,9.3,52.281,52.281,0,0,1,10.672,12.141,57.382,57.382,0,0,1,6.266,14.784,118.776,118.776,0,0,1,4.6,33.582q0,39.212-15.274,57.472-15.274,18.211-52.479,18.211c-13.9,0-25.162-1.958-33.778-5.777A52.715,52.715,0,0,1,583.336,285.7c-4.014-5.287-7.147-12.532-9.3-21.833A128.415,128.415,0,0,1,570.705,233.413Zm45.625.1q0,27.61,5.581,37.6c3.72,6.658,9.105,10.085,16.253,10.085a18.414,18.414,0,0,0,12.141-4.308c3.427-2.839,5.972-7.343,7.539-13.511,1.664-6.168,2.448-15.763,2.448-28.785,0-19.19-1.86-32.016-5.581-38.576s-9.3-9.889-16.742-9.889c-7.637,0-13.12,3.329-16.546,10.085C617.995,202.865,616.331,215.3,616.331,233.51Z" fill="#6c63ff"/>
        <path id="Path_275" data-name="Path 275" d="M804.118,279.136H720.309V246.141L804.118,159.3H844.26V248h20.854v31.135H844.26V306.06H804.118Zm0-31.135V202.669L759.766,248Z" fill="#6c63ff"/>
      </g>
      <g id="freepik--Planets--inject-13">
        <g id="Group_111" data-name="Group 111" opacity="0.3">
          <path id="Path_276" data-name="Path 276" d="M568.943,108.776a2.415,2.415,0,0,1-2.546,2.252,2.355,2.355,0,0,1-2.546-2.252,2.415,2.415,0,0,1,2.546-2.252h0a2.415,2.415,0,0,1,2.546,2.252Z" fill="#407bff"/>
          <ellipse id="Ellipse_87" data-name="Ellipse 87" cx="1.86" cy="1.567" rx="1.86" ry="1.567" transform="translate(390.751 191.802)" fill="#407bff"/>
          <ellipse id="Ellipse_88" data-name="Ellipse 88" cx="2.644" cy="2.252" rx="2.644" ry="2.252" transform="translate(690.251 421.69)" fill="#407bff"/>
          <ellipse id="Ellipse_89" data-name="Ellipse 89" cx="1.86" cy="1.567" rx="1.86" ry="1.567" transform="translate(753.695 330.831)" fill="#407bff"/>
          <path id="Path_277" data-name="Path 277" d="M876.276,48.758a1.692,1.692,0,0,1-1.86,1.567,1.752,1.752,0,0,1-1.86-1.567,1.888,1.888,0,0,1,3.721,0Z" fill="#407bff"/>
          <path id="Path_278" data-name="Path 278" d="M529.976,16.84a1.692,1.692,0,0,1-1.86,1.567,1.752,1.752,0,0,1-1.86-1.567,1.692,1.692,0,0,1,1.86-1.567A1.634,1.634,0,0,1,529.976,16.84Z" fill="#407bff"/>
          <ellipse id="Ellipse_90" data-name="Ellipse 90" cx="1.86" cy="1.567" rx="1.86" ry="1.567" transform="translate(672.726 96.733)" fill="#407bff"/>
        </g>
        <ellipse id="Ellipse_91" data-name="Ellipse 91" cx="30.156" cy="26.337" rx="30.156" ry="26.337" transform="translate(456.447 47.29)" fill="#407bff"/>
        <ellipse id="Ellipse_92" data-name="Ellipse 92" cx="30.156" cy="26.337" rx="30.156" ry="26.337" transform="translate(456.447 47.29)" fill="#fff" opacity="0.7"/>
        <path id="Path_279" data-name="Path 279" d="M476.224,53.751a32.7,32.7,0,0,0-11.945,2.154C453.02,66.675,454,83.32,466.336,93.013c8.714,6.951,21.344,8.812,32.212,4.7h0c11.162-10.77,10.28-27.414-2.056-37.107a33.494,33.494,0,0,0-20.267-6.854Z" fill="#407bff" opacity="0.2"/>
        <path id="Path_280" data-name="Path 280" d="M473.189,60.7a2.623,2.623,0,0,1-2.741,2.448,2.563,2.563,0,0,1-2.741-2.448,2.623,2.623,0,0,1,2.741-2.448A2.768,2.768,0,0,1,473.189,60.7Z" fill="#407bff" opacity="0.2"/>
        <path id="Path_281" data-name="Path 281" d="M505.6,58.353a2.759,2.759,0,1,1-2.741-2.448A2.623,2.623,0,0,1,505.6,58.353Z" fill="#407bff" opacity="0.2"/>
        <path id="Path_282" data-name="Path 282" d="M500.114,75.487c0,2.154-2.056,3.916-4.5,3.916s-4.5-1.762-4.5-3.916,2.056-3.916,4.5-3.916h0C498.058,71.571,500.114,73.333,500.114,75.487Z" fill="#407bff" opacity="0.2"/>
        <path id="Path_283" data-name="Path 283" d="M485.819,86.649c0,2.937-2.741,5.287-6.07,5.287s-6.07-2.35-6.07-5.287,2.741-5.287,6.07-5.287c3.329.1,6.07,2.448,6.07,5.287Z" fill="#407bff" opacity="0.2"/>
        <ellipse id="Ellipse_93" data-name="Ellipse 93" cx="26.533" cy="23.106" rx="26.533" ry="23.106" transform="translate(791.977 362.357)" fill="#407bff"/>
        <ellipse id="Ellipse_94" data-name="Ellipse 94" cx="26.533" cy="23.106" rx="26.533" ry="23.106" transform="translate(791.977 362.357)" fill="#fff" opacity="0.3"/>
        <path id="Path_284" data-name="Path 284" d="M835.155,367.546c-14-3.721-28.785,3.231-32.995,15.372-3.133,9.008.294,18.7,8.616,24.575a28.169,28.169,0,0,0,7.637.979c14.588,0,26.435-10.378,26.435-23.106.1-6.854-3.525-13.413-9.693-17.819Z" fill="#407bff" opacity="0.4"/>
        <path id="Path_285" data-name="Path 285" d="M793.152,392.317c-28.3,11.553-7.147,20.561,32.7,8.028,36.911-11.553,51.01-26.141,17.917-21.638C845.533,384.876,799.32,400.541,793.152,392.317Z" fill="#407bff"/>
      </g>
      <g id="freepik--Astronaut--inject-13">
        <path id="Path_286" data-name="Path 286" d="M834.861,159.394c-37.009,21.833-84.984,50.618-98.2,119.741H733.82c12.924-68.438,59.039-97.908,96.146-119.741Z" opacity="0.2"/>
        <path id="Path_287" data-name="Path 287" d="M643.255,375.869c-23.4,0-46.6-9.2-57.864-24.183-6.951-9.3-15.078-28.785,9.008-54.731l2.154,1.469c-17.036,18.309-20.169,36.813-8.812,51.891,13.8,18.309,46.31,27.61,74.018,21.05,28.393-6.756,45.625-28.3,47.29-59.038,5.679-105.349,69.906-137.854,116.9-161.548,29.177-14.686,50.227-25.358,45.625-47.779-.685-3.133-2.056-5.287-4.406-6.56-5.972-3.427-17.721-1.077-31.233,1.664-26.631,5.385-63.053,12.826-84.69-19.386l2.35-1.175c20.659,30.645,54.535,23.792,81.753,18.211,14.2-2.839,26.435-5.385,33.387-1.371a11.173,11.173,0,0,1,5.483,8.126c4.993,24.085-17.917,35.638-46.9,50.325-46.408,23.4-109.853,55.514-115.531,159.59-1.762,31.918-19.679,54.241-49.346,61.29A84.189,84.189,0,0,1,643.255,375.869Z" fill="#407bff"/>
        <path id="Path_288" data-name="Path 288" d="M643.255,375.869c-23.4,0-46.6-9.2-57.864-24.183-6.951-9.3-15.078-28.785,9.008-54.731l2.154,1.469c-17.036,18.309-20.169,36.813-8.812,51.891,13.8,18.309,46.31,27.61,74.018,21.05,28.393-6.756,45.625-28.3,47.29-59.038,5.679-105.349,69.906-137.854,116.9-161.548,29.177-14.686,50.227-25.358,45.625-47.779-.685-3.133-2.056-5.287-4.406-6.56-5.972-3.427-17.721-1.077-31.233,1.664-26.631,5.385-63.053,12.826-84.69-19.386l2.35-1.175c20.659,30.645,54.535,23.792,81.753,18.211,14.2-2.839,26.435-5.385,33.387-1.371a11.173,11.173,0,0,1,5.483,8.126c4.993,24.085-17.917,35.638-46.9,50.325-46.408,23.4-109.853,55.514-115.531,159.59-1.762,31.918-19.679,54.241-49.346,61.29A84.189,84.189,0,0,1,643.255,375.869Z" fill="#fff" opacity="0.2"/>
        <path id="Path_289" data-name="Path 289" d="M722.854,50.423a70.618,70.618,0,0,1,18.7,2.546s15.176,22.519,16.938,27.708c-.685,4.993-10.476,13.413-10.476,13.413Z" fill="#407bff"/>
        <path id="Path_290" data-name="Path 290" d="M722.854,50.423a70.618,70.618,0,0,1,18.7,2.546s15.176,22.519,16.938,27.708c-.685,4.993-10.476,13.413-10.476,13.413Z" fill="#fff" opacity="0.3"/>
        <path id="Path_291" data-name="Path 291" d="M767.7,159.688a168.962,168.962,0,0,1-15.959-19.68c-1.175-1.762-2.252-3.525-3.329-5.287-.587-.979-1.175-2.056-1.664-3.035a12.618,12.618,0,0,1-1.664-3.231c-1.664-15.176,4.308-26.435-1.371-38.576l-22.715,7.735s1.958,21.736,6.364,34.757c2.741,8.028,8.91,15.078,14.882,21.54,1.86,2.056,3.623,4.112,5.483,6.07,1.86,2.056,3.72,3.623,5.483,5.581,2.644,2.937,3.525,5.679,1.567,9.105l-.392.587c-.587.881,2.154,1.86,3.818,0,2.741-3.133,2.35-2.937,4.8-5.581,1.469-1.567,3.133-3.329,4.6-4.8A3.606,3.606,0,0,0,767.7,159.688Z" fill="#407bff"/>
        <path id="Path_292" data-name="Path 292" d="M767.7,159.688a168.962,168.962,0,0,1-15.959-19.68c-1.175-1.762-2.252-3.525-3.329-5.287-.587-.979-1.175-2.056-1.664-3.035a12.618,12.618,0,0,1-1.664-3.231c-1.664-15.176,4.308-26.435-1.371-38.576l-22.715,7.735s1.958,21.736,6.364,34.757c2.741,8.028,8.91,15.078,14.882,21.54,1.86,2.056,3.623,4.112,5.483,6.07,1.86,2.056,3.72,3.623,5.483,5.581,2.644,2.937,3.525,5.679,1.567,9.105l-.392.587c-.587.881,2.154,1.86,3.818,0,2.741-3.133,2.35-2.937,4.8-5.581,1.469-1.567,3.133-3.329,4.6-4.8A3.606,3.606,0,0,0,767.7,159.688Z" fill="#fff" opacity="0.7"/>
        <path id="Path_293" data-name="Path 293" d="M762.213,153.52a77.9,77.9,0,0,1-11.945,9.008l1.762,1.762a62.349,62.349,0,0,0,11.749-9.008Z" fill="#407bff" opacity="0.3"/>
        <path id="Path_294" data-name="Path 294" d="M767.7,159.688l-.1-.1a6.011,6.011,0,0,0-1.762,3.818,5.639,5.639,0,0,0,.49,2.839l1.273-1.371A3.693,3.693,0,0,0,767.7,159.688Z" fill="#407bff" opacity="0.3"/>
        <path id="Path_295" data-name="Path 295" d="M717.469,64.815a43.317,43.317,0,0,1-8.812,8.616,34.308,34.308,0,0,1-6.07,3.623,25.446,25.446,0,0,1-3.525,1.273l-.979.294-.294.1-.685.2c-.392.1-.783.1-1.175.2a9.966,9.966,0,0,1-3.427-.294,18.011,18.011,0,0,1-4.014-1.567,28.5,28.5,0,0,1-2.937-1.664,45.19,45.19,0,0,1-4.9-3.623,58.688,58.688,0,0,1-8.224-8.126,2.771,2.771,0,0,1,.685-4.21,3.754,3.754,0,0,1,3.916-.1h.1c3.231,1.762,6.56,3.721,9.693,5.385,1.664.783,3.231,1.664,4.8,2.35.685.294,1.469.587,2.154.881a3.929,3.929,0,0,0,1.469.294c.1,0,0-.1-.49-.1h-.49l-.294.1h0l.49-.2a15.841,15.841,0,0,0,1.762-.979,22.221,22.221,0,0,0,3.427-2.546,64.592,64.592,0,0,0,6.756-6.951h0a7.674,7.674,0,0,1,9.693-.49,5.5,5.5,0,0,1,1.273,7.637Z" fill="#407bff"/>
        <path id="Path_296" data-name="Path 296" d="M717.469,64.815a43.317,43.317,0,0,1-8.812,8.616,34.308,34.308,0,0,1-6.07,3.623,25.446,25.446,0,0,1-3.525,1.273l-.979.294-.294.1-.685.2c-.392.1-.783.1-1.175.2a9.966,9.966,0,0,1-3.427-.294,18.011,18.011,0,0,1-4.014-1.567,28.5,28.5,0,0,1-2.937-1.664,45.19,45.19,0,0,1-4.9-3.623,58.688,58.688,0,0,1-8.224-8.126,2.771,2.771,0,0,1,.685-4.21,3.754,3.754,0,0,1,3.916-.1h.1c3.231,1.762,6.56,3.721,9.693,5.385,1.664.783,3.231,1.664,4.8,2.35.685.294,1.469.587,2.154.881a3.929,3.929,0,0,0,1.469.294c.1,0,0-.1-.49-.1h-.49l-.294.1h0l.49-.2a15.841,15.841,0,0,0,1.762-.979,22.221,22.221,0,0,0,3.427-2.546,64.592,64.592,0,0,0,6.756-6.951h0a7.674,7.674,0,0,1,9.693-.49,5.5,5.5,0,0,1,1.273,7.637Z" fill="#fff" opacity="0.7"/>
        <path id="Path_297" data-name="Path 297" d="M667.145,56.885l1.567,2.448s1.273,3.133,3.72,3.721l6.658-1.86-.392-.49h0c-.881-1.175-.783-3.329-.49-5.189s-.783-1.86-1.567-1.469A4.567,4.567,0,0,0,675.467,56a5.611,5.611,0,0,0-1.077-1.077l-2.056-1.762a2.643,2.643,0,0,0-3.231-.1l-1.664,1.273A1.955,1.955,0,0,0,667.145,56.885Z" fill="#407bff"/>
        <path id="Path_298" data-name="Path 298" d="M667.145,56.885l1.567,2.448s1.273,3.133,3.72,3.721l6.658-1.86-.392-.49h0c-.881-1.175-.783-3.329-.49-5.189s-.783-1.86-1.567-1.469A4.567,4.567,0,0,0,675.467,56a5.611,5.611,0,0,0-1.077-1.077l-2.056-1.762a2.643,2.643,0,0,0-3.231-.1l-1.664,1.273A1.955,1.955,0,0,0,667.145,56.885Z" fill="#fff" opacity="0.7"/>
        <path id="Path_299" data-name="Path 299" d="M729.61,48.269A92.591,92.591,0,0,0,708.462,56a4.923,4.923,0,0,0-2.644,5.483c2.644,11.357,8.714,26.533,15.274,36.128l30.449-10.966c.2-4.7-7.147-19.777-14.686-34.464C735.387,49.541,732.841,47.583,729.61,48.269Z" fill="#407bff"/>
        <path id="Path_300" data-name="Path 300" d="M729.61,48.269A92.591,92.591,0,0,0,708.462,56a4.923,4.923,0,0,0-2.644,5.483c2.644,11.357,8.714,26.533,15.274,36.128l30.449-10.966c.2-4.7-7.147-19.777-14.686-34.464C735.387,49.541,732.841,47.583,729.61,48.269Z" fill="#fff" opacity="0.8"/>
        <path id="Path_301" data-name="Path 301" d="M741.457,61.486l-6.07-1.762c1.371,3.035,6.266,6.951,9.595,9.3C744,66.577,742.73,64.032,741.457,61.486Z" fill="#407bff" opacity="0.3"/>
        <path id="Path_302" data-name="Path 302" d="M727.652,36.422c-2.546-4.21-7.93-6.266-14.49-5.777-5.483.392-10.378,5.287-9.791,7.931s5.189,3.721,6.07,4.7l-3.818,2.448a3.329,3.329,0,0,0-.979,4.993l.1.1c1.567,1.762,3.721,3.623,4.993,4.9,10.574-.2,18.407-3.721,21.148-7.147C729.806,44.254,730.1,40.534,727.652,36.422Z" fill="#407bff"/>
        <path id="Path_303" data-name="Path 303" d="M727.652,36.422c-2.546-4.21-7.93-6.266-14.49-5.777-5.483.392-10.378,5.287-9.791,7.931s5.189,3.721,6.07,4.7l-3.818,2.448a3.329,3.329,0,0,0-.979,4.993l.1.1c1.567,1.762,3.721,3.623,4.993,4.9,10.574-.2,18.407-3.721,21.148-7.147C729.806,44.254,730.1,40.534,727.652,36.422Z" fill="#fff" opacity="0.8"/>
        <path id="Path_304" data-name="Path 304" d="M722.463,38.967c2.056,4.7-.587,9.987-5.972,11.749-5.385,1.86-11.455-.49-13.511-5.189s.587-9.889,5.874-11.749C714.238,32.016,720.309,34.268,722.463,38.967Z" fill="#263238"/>
        <path id="Path_305" data-name="Path 305" d="M811.853,147.058c-.2-3.916-.392-3.623-.49-6.951-.1-2.056-.1-4.308-.1-6.266a4.172,4.172,0,0,0-3.721-3.916c-1.86-.294-3.623-.587-5.483-.979-2.35-.49-4.7-.881-7.049-1.469-1.86-.49-3.623-.979-5.385-1.567s-3.818-1.175-5.581-1.958c-2.154-.783-4.308-1.664-6.462-2.546-2.35-.979-4.7-2.056-7.049-3.035-9.105-13.022-9.3-21.638-18.994-31.82l-20.854,8.224s15.372,23.694,25.75,33.778c5.972,5.777,15.469,8.42,23.89,10.28,6.07,1.371,12.238,2.448,18.407,3.427,2.35.392,4.993.49,7.049,1.762a6.537,6.537,0,0,1,2.937,4.112c.1.294.2.685.294.979C809.111,150.289,811.951,149.505,811.853,147.058Z" fill="#407bff"/>
        <path id="Path_306" data-name="Path 306" d="M811.853,147.058c-.2-3.916-.392-3.623-.49-6.951-.1-2.056-.1-4.308-.1-6.266a4.172,4.172,0,0,0-3.721-3.916c-1.86-.294-3.623-.587-5.483-.979-2.35-.49-4.7-.881-7.049-1.469-1.86-.49-3.623-.979-5.385-1.567s-3.818-1.175-5.581-1.958c-2.154-.783-4.308-1.664-6.462-2.546-2.35-.979-4.7-2.056-7.049-3.035-9.105-13.022-9.3-21.638-18.994-31.82l-20.854,8.224s15.372,23.694,25.75,33.778c5.972,5.777,15.469,8.42,23.89,10.28,6.07,1.371,12.238,2.448,18.407,3.427,2.35.392,4.993.49,7.049,1.762a6.537,6.537,0,0,1,2.937,4.112c.1.294.2.685.294.979C809.111,150.289,811.951,149.505,811.853,147.058Z" fill="#fff" opacity="0.8"/>
        <path id="Path_307" data-name="Path 307" d="M801.279,128.847c-.783-.2-1.664-.294-2.448-.49.1,4.112-2.154,11.259-2.937,13.511l2.644.392A44.837,44.837,0,0,0,801.279,128.847Z" fill="#407bff" opacity="0.3"/>
        <path id="Path_308" data-name="Path 308" d="M811.363,133.938a4.172,4.172,0,0,0-3.72-3.916l-1.371-.2a5.2,5.2,0,0,0,2.252,3.525,9,9,0,0,0,2.741,1.371A2.433,2.433,0,0,0,811.363,133.938Z" fill="#407bff" opacity="0.3"/>
        <path id="Path_309" data-name="Path 309" d="M720.5,39.065a2.2,2.2,0,0,1-3.623,2.154,35.272,35.272,0,0,0-5.679-4.406c-1.958-1.077.587-2.839,3.623-2.154A7.586,7.586,0,0,1,720.5,39.065Z" fill="#fff"/>
        <path id="Path_310" data-name="Path 310" d="M720.6,97.027c-.979.294.783,1.762.783,1.762s19.288-5.777,31.037-11.651a1.929,1.929,0,0,0-.979-1.86A323.194,323.194,0,0,1,720.6,97.027Z" fill="#407bff"/>
        <path id="Path_311" data-name="Path 311" d="M720.6,97.027c-.979.294.783,1.762.783,1.762s19.288-5.777,31.037-11.651a1.929,1.929,0,0,0-.979-1.86A323.194,323.194,0,0,1,720.6,97.027Z" fill="#fff" opacity="0.5"/>
        <path id="Path_312" data-name="Path 312" d="M734.8,47.485c3.818,1.664,7.343,3.427,11.064,5.385,1.762.979,3.525,1.958,5.287,3.035a59.354,59.354,0,0,1,5.189,3.427l.685.49.783.685a17.05,17.05,0,0,1,1.371,1.175,13.3,13.3,0,0,1,1.175,1.175,11.729,11.729,0,0,1,1.077,1.175,54.776,54.776,0,0,1,3.525,4.8,62.374,62.374,0,0,1,5.483,9.987,2.911,2.911,0,0,1-2.056,3.916,3.934,3.934,0,0,1-3.721-.783l-.1-.1c-2.741-2.546-5.385-5.287-8.126-7.735s-5.385-5.091-7.637-6.168c-3.133-1.664-6.658-3.427-10.085-4.993l-10.28-4.993h0c-3.329-1.567-4.6-5.189-2.839-8.126s5.972-4.014,9.3-2.448Z" fill="#407bff"/>
        <path id="Path_313" data-name="Path 313" d="M734.8,47.485c3.818,1.664,7.343,3.427,11.064,5.385,1.762.979,3.525,1.958,5.287,3.035a59.354,59.354,0,0,1,5.189,3.427l.685.49.783.685a17.05,17.05,0,0,1,1.371,1.175,13.3,13.3,0,0,1,1.175,1.175,11.729,11.729,0,0,1,1.077,1.175,54.776,54.776,0,0,1,3.525,4.8,62.374,62.374,0,0,1,5.483,9.987,2.911,2.911,0,0,1-2.056,3.916,3.934,3.934,0,0,1-3.721-.783l-.1-.1c-2.741-2.546-5.385-5.287-8.126-7.735s-5.385-5.091-7.637-6.168c-3.133-1.664-6.658-3.427-10.085-4.993l-10.28-4.993h0c-3.329-1.567-4.6-5.189-2.839-8.126s5.972-4.014,9.3-2.448Z" fill="#fff" opacity="0.8"/>
        <path id="Path_314" data-name="Path 314" d="M773.766,84.886l-1.175-2.546s-.685-3.231-2.937-4.21l-6.854.979.2.49h0c.587,1.175.2,3.427-.49,5.189-.587,1.762.392,1.958,1.273,1.664.49-.2.979-.979,1.469-1.762l.881,1.175,1.664,2.056a2.52,2.52,0,0,0,3.133.49l1.86-1.077A1.93,1.93,0,0,0,773.766,84.886Z" fill="#407bff"/>
        <path id="Path_315" data-name="Path 315" d="M773.766,84.886l-1.175-2.546s-.685-3.231-2.937-4.21l-6.854.979.2.49h0c.587,1.175.2,3.427-.49,5.189-.587,1.762.392,1.958,1.273,1.664.49-.2.979-.979,1.469-1.762l.881,1.175,1.664,2.056a2.52,2.52,0,0,0,3.133.49l1.86-1.077A1.93,1.93,0,0,0,773.766,84.886Z" fill="#fff" opacity="0.8"/>
        <path id="Path_316" data-name="Path 316" d="M729.023,61.29l-1.664.1-10.28,21.736a8.959,8.959,0,0,0,1.664-.1s13.413-4.406,17.526-5.972C733.428,72.06,729.023,61.29,729.023,61.29Z" fill="#407bff" opacity="0.3"/>
        <path id="Path_317" data-name="Path 317" d="M710.224,66.969a49.967,49.967,0,0,0,6.854,16.155c4.993-1.469,13.413-4.406,17.526-5.972a141.137,141.137,0,0,1-7.245-15.665C722.952,61.682,713.553,64.815,710.224,66.969Z" fill="#fff"/>
        <path id="Path_318" data-name="Path 318" d="M720.407,71.669A3.628,3.628,0,0,1,716,73.725a3.02,3.02,0,0,1-2.35-3.818,3.628,3.628,0,0,1,4.406-2.056h0A2.949,2.949,0,0,1,720.407,71.669Z" fill="#407bff" opacity="0.3"/>
        <path id="Path_319" data-name="Path 319" d="M723.05,67.556a1.2,1.2,0,0,1-1.371.783,1.106,1.106,0,0,1-.881-1.273,1.2,1.2,0,0,1,1.371-.783h.1A1.092,1.092,0,0,1,723.05,67.556Z" fill="#407bff" opacity="0.6"/>
        <path id="Path_320" data-name="Path 320" d="M726.183,66.479a1.147,1.147,0,0,1-1.371.783c-.587-.1-1.077-.685-.881-1.175,0-.1,0-.1.1-.2a1.209,1.209,0,0,1,1.469-.685h0A1.122,1.122,0,0,1,726.183,66.479Z" fill="#407bff" opacity="0.6"/>
        <path id="Path_321" data-name="Path 321" d="M730.491,75.781l-12.728,4.406-.783-2.154,12.728-4.406Z" fill="#407bff" opacity="0.5"/>
      </g>
      <g id="freepik--Rocket--inject-13">
        <path id="Path_322" data-name="Path 322" d="M660.193,242.616a93.94,93.94,0,0,1-2.35,20.854c-1.664,6.168-4.112,10.672-7.539,13.511a18.942,18.942,0,0,1-12.141,4.308c-7.049,0-12.532-3.329-16.253-10.085a25.36,25.36,0,0,1-1.664-3.72,196.037,196.037,0,0,0-21.931,19.19l-7.343,7.539a56.1,56.1,0,0,0,13.413,8.616c8.616,3.818,19.875,5.777,33.778,5.777,2.448,0,4.8-.1,7.147-.2a165.728,165.728,0,0,0,20.756-34.757l20.463-46.506Z" opacity="0.2"/>
        <path id="Path_323" data-name="Path 323" d="M475.833,305.962l24.085,20.952L567.377,271.5C544.074,263.862,498.841,285.793,475.833,305.962Z" fill="#263238"/>
        <path id="Path_324" data-name="Path 324" d="M559.838,379.2c-7.735-6.756-24.085-20.952-24.085-20.952l63.64-58.745C608.2,319.572,582.944,359.028,559.838,379.2Z" fill="#263238"/>
        <path id="Path_325" data-name="Path 325" d="M652.067,246.826,678.4,202.669l-50.716,22.91a199.414,199.414,0,0,0-44.646,27.61l-86.453,70.885,42.492,37.009,81.362-75.291A175.892,175.892,0,0,0,652.067,246.826Z" fill="#407bff"/>
        <path id="Path_326" data-name="Path 326" d="M652.067,246.826,678.4,202.669l-50.716,22.91a199.414,199.414,0,0,0-44.646,27.61l-86.453,70.885,42.492,37.009,81.362-75.291A175.892,175.892,0,0,0,652.067,246.826Z" fill="#fff" opacity="0.6"/>
        <ellipse id="Ellipse_95" data-name="Ellipse 95" cx="17.721" cy="15.469" rx="17.721" ry="15.469" transform="translate(580.398 257.106)" fill="#fff"/>
        <ellipse id="Ellipse_96" data-name="Ellipse 96" cx="11.455" cy="9.987" rx="11.455" ry="9.987" transform="translate(586.664 262.589)" fill="#407bff"/>
        <path id="Path_327" data-name="Path 327" d="M553.376,347.769l-41.513-36.226,33.974-27.9L585.49,318.1Z" fill="#407bff" opacity="0.3"/>
        <path id="Path_328" data-name="Path 328" d="M485.232,339.055c-31.135,2.154-41.415,19.582-44.94,42.59-1.762,11.749-2.546,23.694-13.9,30.547a3.049,3.049,0,0,0-.979,4.6,3.911,3.911,0,0,0,3.231,1.469c41.807-1.175,61.29-18.994,63.738-26.435a46.085,46.085,0,0,1-3.427,11.357,3.229,3.229,0,0,0,2.056,4.308,4.224,4.224,0,0,0,3.427-.294c11.749-6.364,26.435-18.211,27.414-37.3C513.136,359.518,485.232,339.055,485.232,339.055Z" fill="#407bff"/>
        <path id="Path_329" data-name="Path 329" d="M485.232,339.055c-31.135,2.154-41.415,19.582-44.94,42.59-1.762,11.749-2.546,23.694-13.9,30.547a3.049,3.049,0,0,0-.979,4.6,3.911,3.911,0,0,0,3.231,1.469c41.807-1.175,61.29-18.994,63.738-26.435a46.085,46.085,0,0,1-3.427,11.357,3.229,3.229,0,0,0,2.056,4.308,4.224,4.224,0,0,0,3.427-.294c11.749-6.364,26.435-18.211,27.414-37.3C513.136,359.518,485.232,339.055,485.232,339.055Z" fill="#fff" opacity="0.2"/>
        <path id="Path_330" data-name="Path 330" d="M526.647,378.316l-49.933-43.471,26.533-4.993,29.079,25.358Z" fill="#407bff"/>
      </g>
    </g>
  </g>
</svg>
