<svg xmlns="http://www.w3.org/2000/svg" xmlns:xlink="http://www.w3.org/1999/xlink" width="623.132" height="493.326" viewBox="0 0 623.132 493.326">
  <defs>
    <clipPath id="clip-path">
      <rect id="Rectangle_22" data-name="Rectangle 22" width="451" height="390" transform="translate(771 2023.295)" fill="#fff" stroke="#707070" stroke-width="1"/>
    </clipPath>
  </defs>
  <g id="Group_74" data-name="Group 74" transform="translate(-617.91 -3197.699)">
    <path id="Path_210" data-name="Path 210" d="M-.882-3.489s278.65-82.844,321.566-37.5c34,35.926,52.588,42,72.741,49.566C441.862,26.758,462.7-3.489,462.7-3.489s32.822,476.7,0,530.747S38.674,561.683,10.985,520.332-.882-3.489-.882-3.489Z" transform="translate(672.553 3675.866) rotate(-89)" fill="#edf0f0"/>
    <g id="Mask_Group_25" data-name="Mask Group 25" transform="translate(-37.509 1243.429)" clip-path="url(#clip-path)">
      <g id="undraw_survey_05s5" transform="translate(771 2050.439)">
        <path id="Path_185" data-name="Path 185" d="M477.877,340.1H290.3a.648.648,0,0,1,0-1.3H477.877a.648.648,0,0,1,0,1.3Z" transform="translate(-27.131 -4.754)" fill="#3f3d56"/>
        <path id="Path_186" data-name="Path 186" d="M357.039,335.152h-7.667l-3.654-30.525h11.321Z" transform="translate(-23.368 -7.223)" fill="#ffb8b8"/>
        <path id="Path_187" data-name="Path 187" d="M344.621,331.014h14.76v9.647h-24A9.417,9.417,0,0,1,344.621,331.014Z" transform="translate(-24.062 -5.317)" fill="#2f2e41"/>
        <path id="Path_188" data-name="Path 188" d="M409.644,326.642l-6.95,3.24-15.548-26.206,10.318-4.824Z" transform="translate(-20.588 -7.64)" fill="#ffb8b8"/>
        <path id="Path_189" data-name="Path 189" d="M396.619,328.554l13.4-6.335h0L413.886,331h0l-21.853,10.367h0A9.773,9.773,0,0,1,396.619,328.554Z" transform="translate(-20.317 -5.952)" fill="#2f2e41"/>
        <path id="Path_190" data-name="Path 190" d="M388.054,239.1a6.6,6.6,0,0,0,1.218-9.071c-.215-.288-.5-.576-.717-.864l8.956-21.094-11.392,2.016-6.807,19.726a6.686,6.686,0,0,0,.931,9.215A6.133,6.133,0,0,0,388.054,239.1Z" transform="translate(-21.209 -14.198)" fill="#ffb8b8"/>
        <path id="Path_191" data-name="Path 191" d="M356.98,333.39h-7.308a2.875,2.875,0,0,1-2.794-2.664L339.139,220.5a2.841,2.841,0,0,1,2.579-3.1h.5l45.927,4.68a2.807,2.807,0,0,1,2.508,2.808l.86,48.6a3.073,3.073,0,0,0,.143.792L409,320.863a2.9,2.9,0,0,1-1.576,3.744h-.072l-7.38,2.808a2.72,2.72,0,0,1-3.439-1.368l-21.28-42.908a3.018,3.018,0,0,1-.287-.72l-3.654-18.142a2.143,2.143,0,0,0-2.579-1.728,2.213,2.213,0,0,0-1.72,1.944L359.7,330.87A2.636,2.636,0,0,1,356.98,333.39Z" transform="translate(-23.811 -13.524)" fill="#2f2e41"/>
        <ellipse id="Ellipse_69" data-name="Ellipse 69" cx="15.333" cy="15.839" rx="15.333" ry="15.839" transform="translate(321.49 89.128)" fill="#ffb8b8"/>
        <path id="Path_192" data-name="Path 192" d="M341.891,226.394c1.935,1.368,24,16.486,49.223,4.464-.358-2.88-3.439-32.181-.716-53.707a27.792,27.792,0,0,0-10.747-25.99,30,30,0,0,0-31.167-3.456h0c-.43.216-.86.36-1.218.576Z" transform="translate(-23.625 -18.766)" fill="#6c63ff"/>
        <path id="Path_193" data-name="Path 193" d="M388.887,229.417a2.937,2.937,0,0,1-2.078-.936l-3.368-3.816a3.027,3.027,0,0,1-.645-2.808l7.666-26.925-11.679-25.414a5.66,5.66,0,0,1-.358-3.6,5.155,5.155,0,0,1,6.233-3.96,4.919,4.919,0,0,1,3.3,2.664l15.763,26.565a7.6,7.6,0,0,1,.43,6.911l-12.825,29.517a2.729,2.729,0,0,1-2.078,1.656C389.174,229.417,389.03,229.417,388.887,229.417Z" transform="translate(-21.183 -17.541)" fill="#6c63ff"/>
        <path id="Path_194" data-name="Path 194" d="M352.883,225.145h-6.09l10.676-52.051.645.072-2.364,49.243A2.954,2.954,0,0,1,352.883,225.145Z" transform="translate(-23.296 -16.725)" opacity="0.2"/>
        <path id="Path_195" data-name="Path 195" d="M347.888,235.907a6.574,6.574,0,0,0-.645-9.143,6.728,6.728,0,0,0-.86-.648l4.586-22.606L340.221,207.9l-2.651,20.806a6.653,6.653,0,0,0,2.723,8.783A6.083,6.083,0,0,0,347.888,235.907Z" transform="translate(-23.961 -14.528)" fill="#ffb8b8"/>
        <path id="Path_196" data-name="Path 196" d="M347.245,227.081h-.287l-6.52-.72a2.913,2.913,0,0,1-2.508-3.024l2.723-67.674a8.375,8.375,0,0,1,16.623-1.44L359,162.5v.072l-8.956,62.13A2.905,2.905,0,0,1,347.245,227.081Z" transform="translate(-23.891 -18.588)" fill="#6c63ff"/>
        <path id="Path_197" data-name="Path 197" d="M373.135,140.616c-1.576.288-2.866-2.016-3.081-3.6s.358-3.168.43-4.752-.645-3.528-2.293-4.032-3.224.936-4.944.72c-2.364-.216-3.582-3.168-3.869-5.471-.287-2.376-.5-5.112-2.579-6.479s-4.657-.36-7.022-.288a9.576,9.576,0,0,1-9.028-7.055,2.219,2.219,0,0,0,2.579-1.08,2.342,2.342,0,0,0-.716-2.808l4.586,2.3a2.523,2.523,0,0,1,1.648-3.312,8.381,8.381,0,0,1,4.227-.072c7.165,1.152,15.4.576,20.133,6.191,3.3,3.888,5.947,11.375,5.589,16.126S373.135,140.616,373.135,140.616Z" transform="translate(-23.702 -21.683)" fill="#2f2e41"/>
        <path id="Path_198" data-name="Path 198" d="M219.4,325.168H55.465a4.432,4.432,0,0,1-4.371-4.536L43.643,31.8a4.432,4.432,0,0,1,4.371-4.536H211.875a4.432,4.432,0,0,1,4.371,4.536l1.361,52.339h-1.218L215.028,31.8a3.145,3.145,0,0,0-3.081-3.24H48.013a3.145,3.145,0,0,0-3.081,3.24L52.384,320.56a3.145,3.145,0,0,0,3.081,3.24H219.327a3.145,3.145,0,0,0,3.081-3.24l-1.433-56.227h1.218l1.433,56.227a4.335,4.335,0,0,1-4.227,4.608Z" transform="translate(-43.643 -27.26)" fill="#ccc"/>
        <path id="Path_199" data-name="Path 199" d="M207.4,152.616h1.218l.645,24.766-1.218.072Z" transform="translate(-32.652 -18.204)" fill="#ccc"/>
        <path id="Path_200" data-name="Path 200" d="M203.674,297.965H67.971a3.788,3.788,0,0,1-3.726-3.888L58.011,54.916a3.788,3.788,0,0,1,3.726-3.888H197.513a3.788,3.788,0,0,1,3.726,3.888l1.146,27.5-1.218.072L200.02,54.916a2.5,2.5,0,0,0-2.436-2.592H61.737a2.561,2.561,0,0,0-2.508,2.592L65.391,294.15a2.5,2.5,0,0,0,2.436,2.592H203.6a2.561,2.561,0,0,0,2.508-2.592l-.788-31.389h1.218l.788,31.461a3.649,3.649,0,0,1-3.654,3.744Z" transform="translate(-42.678 -25.543)" fill="#ccc"/>
        <path id="Path_201" data-name="Path 201" d="M193.64,153.22h1.29l.645,24.55h-1.29Z" transform="translate(-33.575 -18.161)" fill="#ccc"/>
        <path id="Path_202" data-name="Path 202" d="M238.848,158.531H79.93a4.461,4.461,0,0,1-4.371-4.464L73.051,84.234A4.432,4.432,0,0,1,77.422,79.7H236.34a4.461,4.461,0,0,1,4.371,4.464L243.219,154A4.526,4.526,0,0,1,238.848,158.531ZM74.269,84.162,76.777,154a3.145,3.145,0,0,0,3.081,3.24H238.776a3.127,3.127,0,0,0,3.081-3.168l-2.508-69.833a3.145,3.145,0,0,0-3.081-3.24H77.422A3.237,3.237,0,0,0,74.269,84.162Z" transform="translate(-41.669 -23.472)" fill="#3f3d56"/>
        <path id="Path_203" data-name="Path 203" d="M266.846,254.344H107.928a4.461,4.461,0,0,1-4.371-4.464l-2.508-69.833a4.432,4.432,0,0,1,4.371-4.536H264.339a4.461,4.461,0,0,1,4.371,4.464l2.508,69.833A4.432,4.432,0,0,1,266.846,254.344ZM102.34,179.975l2.508,69.833a3.145,3.145,0,0,0,3.081,3.24H266.847a3.127,3.127,0,0,0,3.081-3.168l-2.508-69.833a3.145,3.145,0,0,0-3.081-3.24H105.421A3.175,3.175,0,0,0,102.34,179.975Z" transform="translate(-39.79 -16.55)" fill="#3f3d56"/>
        <path id="Path_204" data-name="Path 204" d="M143.07,189.679a4.154,4.154,0,0,0-4.084,4.176,4.108,4.108,0,0,0,4.084,4.176h81.035a4.154,4.154,0,0,0,4.084-4.176,4.108,4.108,0,0,0-4.084-4.176Z" transform="translate(-37.244 -15.527)" fill="#6c63ff"/>
        <path id="Path_205" data-name="Path 205" d="M143.07,208.344a4.154,4.154,0,0,0-4.084,4.176,4.108,4.108,0,0,0,4.084,4.176h81.035a4.154,4.154,0,0,0,4.084-4.176,4.108,4.108,0,0,0-4.084-4.176Z" transform="translate(-37.244 -14.179)" fill="#6c63ff"/>
        <path id="Path_206" data-name="Path 206" d="M143.07,227.01a4.154,4.154,0,0,0-4.084,4.176,4.108,4.108,0,0,0,4.084,4.176h81.035a4.154,4.154,0,0,0,4.084-4.176,4.108,4.108,0,0,0-4.084-4.176Z" transform="translate(-37.244 -12.83)" fill="#6c63ff"/>
        <path id="Path_207" data-name="Path 207" d="M115.071,93.866a4.154,4.154,0,0,0-4.084,4.176,4.108,4.108,0,0,0,4.084,4.176h81.035a4.154,4.154,0,0,0,4.084-4.176,4.108,4.108,0,0,0-4.084-4.176Z" transform="translate(-39.123 -22.448)" fill="#6c63ff"/>
        <path id="Path_208" data-name="Path 208" d="M115.071,112.531a4.154,4.154,0,0,0-4.084,4.176,4.108,4.108,0,0,0,4.084,4.176h81.035a4.154,4.154,0,0,0,4.084-4.176,4.108,4.108,0,0,0-4.084-4.176Z" transform="translate(-39.123 -21.1)" fill="#6c63ff"/>
        <path id="Path_209" data-name="Path 209" d="M115.071,131.2a4.154,4.154,0,0,0-4.084,4.176,4.108,4.108,0,0,0,4.084,4.176h81.035a4.154,4.154,0,0,0,4.084-4.176,4.108,4.108,0,0,0-4.084-4.176Z" transform="translate(-39.123 -19.752)" fill="#6c63ff"/>
        <ellipse id="Ellipse_70" data-name="Ellipse 70" cx="6.233" cy="6.479" rx="6.233" ry="6.479" transform="translate(81.25 6.479)" fill="#e6e6e6"/>
      </g>
    </g>
  </g>
</svg>
