<svg xmlns="http://www.w3.org/2000/svg" xmlns:xlink="http://www.w3.org/1999/xlink" width="694.852" height="652.35" viewBox="0 0 694.852 652.35">
  <defs>
    <clipPath id="clip-path">
      <rect id="Rectangle_3" data-name="Rectangle 3" width="422.152" height="423" transform="translate(-0.346)" fill="#fff" stroke="#707070" stroke-width="1"/>
    </clipPath>
    <clipPath id="clip-path-2">
      <ellipse id="Ellipse_5" data-name="Ellipse 5" cx="14.844" cy="16.358" rx="14.844" ry="16.358" fill="#fff"/>
    </clipPath>
    <linearGradient id="linear-gradient" x1="-0.039" y1="1.512" x2="-0.023" y2="1.496" gradientUnits="objectBoundingBox">
      <stop offset="0" stop-color="#387eb8"/>
      <stop offset="1" stop-color="#366994"/>
    </linearGradient>
    <linearGradient id="linear-gradient-2" x1="-0.391" y1="1.178" x2="-0.374" y2="1.161" gradientUnits="objectBoundingBox">
      <stop offset="0" stop-color="#ffe052"/>
      <stop offset="1" stop-color="#ffc331"/>
    </linearGradient>
    <clipPath id="clip-path-3">
      <ellipse id="Ellipse_6" data-name="Ellipse 6" cx="16.601" cy="15.697" rx="16.601" ry="15.697" transform="translate(0.154)" fill="#fff" stroke="#707070" stroke-width="1"/>
    </clipPath>
    <clipPath id="clip-path-4">
      <ellipse id="Ellipse_26" data-name="Ellipse 26" cx="15.015" cy="15.297" rx="15.015" ry="15.297" transform="translate(-0.314)" fill="#fff" stroke="#707070" stroke-width="1"/>
    </clipPath>
    <clipPath id="clip-path-5">
      <ellipse id="Ellipse_8" data-name="Ellipse 8" cx="15.951" cy="16.674" rx="15.951" ry="16.674" transform="translate(0.432)" fill="#fff" stroke="#707070" stroke-width="1"/>
    </clipPath>
    <clipPath id="clip-path-6">
      <ellipse id="Ellipse_15" data-name="Ellipse 15" cx="16.377" cy="16.941" rx="16.377" ry="16.941" transform="translate(0.383)" fill="#fff" stroke="#707070" stroke-width="1"/>
    </clipPath>
    <clipPath id="clip-path-7">
      <ellipse id="Ellipse_9" data-name="Ellipse 9" cx="14.934" cy="12.548" rx="14.934" ry="12.548" transform="translate(-0.314)" fill="#fff" stroke="#707070" stroke-width="1"/>
    </clipPath>
    <clipPath id="clip-path-8">
      <rect id="Rectangle_6" data-name="Rectangle 6" width="34.883" height="55.219" fill="#fff" stroke="#707070" stroke-width="1"/>
    </clipPath>
    <clipPath id="clip-path-9">
      <rect id="Rectangle_83" data-name="Rectangle 83" width="62.365" height="61.663" fill="#fff" stroke="#707070" stroke-width="1"/>
    </clipPath>
    <clipPath id="clip-path-10">
      <ellipse id="Ellipse_12" data-name="Ellipse 12" cx="14.054" cy="13.942" rx="14.054" ry="13.942" transform="translate(0.013)" fill="#fff" stroke="#707070" stroke-width="1"/>
    </clipPath>
    <clipPath id="clip-path-11">
      <ellipse id="Ellipse_11" data-name="Ellipse 11" cx="16.041" cy="14.594" rx="16.041" ry="14.594" fill="#fff" stroke="#707070" stroke-width="1"/>
    </clipPath>
    <clipPath id="clip-path-12">
      <circle id="Ellipse_7" data-name="Ellipse 7" cx="20" cy="20" r="20" fill="#fff" stroke="#707070" stroke-width="1"/>
    </clipPath>
  </defs>
  <g id="Group_194" data-name="Group 194" transform="translate(-15.317 -27.221)">
    <path id="Path_1" data-name="Path 1" d="M141.453,0c-157,23.075-17.661,111.823-17.661,111.823S-1.476,259.6,83.91,295.184s73.389,22.25,121.69,44.653,50.938,48.91,39.8,81.855c-7.7,22.765-6.039,70.363,6.861,109.38,5.63,17.03,13.586,32.575,23.931,43.332,33.479,34.812,78.971,85.128,150.475,77.091S561.322,592.84,562.21,542.254c26.936-4.027,57.687-11.537,86.974-35.5,33.412-31.627,41.711-63.977,41.711-63.977V0Z" transform="translate(710.169 679.572) rotate(-180)" fill="#dbeeef"/>
    <g id="Mask_Group_1" data-name="Mask Group 1" transform="translate(184.096 169.169)" clip-path="url(#clip-path)">
      <g id="eng" transform="translate(-0.186 54.559)">
        <ellipse id="Ellipse_1" data-name="Ellipse 1" cx="11.905" cy="12.872" rx="11.905" ry="12.872" transform="translate(34.063 120.677)" fill="#ffb8b8"/>
        <path id="Path_2" data-name="Path 2" d="M39.606,440.663l3.017,5.541,21.191-9.938L59.361,428.1Z" transform="translate(-33.87 -152.906)" fill="#ffb8b8"/>
        <path id="Path_3" data-name="Path 3" d="M39.439,440.674l5.935,10.9h0a8.441,8.441,0,0,1-2.647,11.039h0l-.208.129L32.8,444.89Z" transform="translate(-32.8 -155.387)" fill="#2f2e41"/>
        <path id="Path_4" data-name="Path 4" d="M81.056,462.509H87l2.827-24.772H81.056Z" transform="translate(-40.39 -154.807)" fill="#ffb8b8"/>
        <path id="Path_5" data-name="Path 5" d="M79.255,465.981H90.962c4.119,0,7.461,3.605,7.461,8.062h0v.258H79.255Z" transform="translate(-40.107 -160.379)" fill="#2f2e41"/>
        <path id="Path_6" data-name="Path 6" d="M51.228,431.5a2.1,2.1,0,0,1-1.752-.964l-5.736-8.415a2.487,2.487,0,0,1,.461-3.3c.027-.017.054-.043.081-.06L69.79,400.353,54.4,356.617l32.915,2.934,1.111,37.584a19.26,19.26,0,0,1-8.744,16.985L52.33,431.174A2.075,2.075,0,0,1,51.228,431.5Z" transform="translate(-34.454 -138.805)" fill="#2f2e41"/>
        <path id="Path_7" data-name="Path 7" d="M80.638,452.572a2.268,2.268,0,0,1-2.177-2.272l-1.21-36.612,14.931-.852L91,449.707a2.278,2.278,0,0,1-2.032,2.272l-8.184.585C80.738,452.564,80.683,452.572,80.638,452.572Z" transform="translate(-39.792 -149.895)" fill="#2f2e41"/>
        <path id="Path_8" data-name="Path 8" d="M92.7,350.1c-3.8,0-17.072-4.621-21.679-6.264-.686.594-4.48,3.657-8.9,3.1-2.728-.344-5.131-2.013-7.136-4.956-4.435-6.5,1.039-34.4,6.422-56.651,2.24-9.353,10.921-15.109,19.646-13.036h0A17.448,17.448,0,0,1,93.7,285.589c1.012,4.448.145,9.689-.5,13.517a19.738,19.738,0,0,0-.452,3.915c.316,2.7,2.041,45,.93,46.808C93.563,350.018,93.22,350.1,92.7,350.1Z" transform="translate(-36.034 -122.088)" fill="#605bb7"/>
        <path id="Path_9" data-name="Path 9" d="M81.585,354.711a5.935,5.935,0,0,0,1.066-7.873,4.962,4.962,0,0,0-.614-.74l.235-51.265L71.1,296.847l3.279,49.759a5.977,5.977,0,0,0,.723,7.968A4.952,4.952,0,0,0,81.585,354.711Z" transform="translate(-38.824 -126.617)" fill="#ffb8b8"/>
        <path id="Path_10" data-name="Path 10" d="M83.9,324.3H71.867a2.285,2.285,0,0,1-2.186-2.34l-.3-35.261c-.045-5.094,3.74-9.258,8.455-9.31s8.572,4.044,8.608,9.138v.189l-.37,35.244A2.265,2.265,0,0,1,83.9,324.3Z" transform="translate(-38.554 -123.177)" fill="#605bb7"/>
        <path id="Path_11" data-name="Path 11" d="M81.561,260.138c-5.456.009-10.6-4.646-11.535-10.446a16.216,16.216,0,0,1,.443-6.815c2.647-9.7,12.068-15.247,21.046-12.382a16.438,16.438,0,0,1,2.186.878,6.981,6.981,0,0,1,3.559,3.313c.668,1.575.253,3.769-1.21,4.474-.957.465-2.15.232-3,.895-1.219.955-.9,2.986-.361,4.5s1.156,3.347.244,4.638c-.849,1.2-2.547,1.17-3.884.714s-2.656-1.213-4.047-1.058c-2.032.224-3.5,2.409-3.758,4.595a16.252,16.252,0,0,0,.994,6.471Z" transform="translate(-38.628 -113.777)" fill="#2f2e41"/>
        <path id="Path_12" data-name="Path 12" d="M464.83,314.362H154.166c-4.417-.009-7.994-3.872-8-8.647V98.676a6.116,6.116,0,0,1,5.862-6.333H466.863a6.218,6.218,0,0,1,5.962,6.445V305.724C472.824,310.49,469.247,314.354,464.83,314.362Z" transform="translate(-50.632 -86.673)" fill="#f2f2f2"/>
        <path id="Path_13" data-name="Path 13" d="M456.914,307.681H167.386a7.75,7.75,0,0,1-7.7-7.787V119.6a5.743,5.743,0,0,1,5.7-5.774H458.81a5.843,5.843,0,0,1,5.8,5.877V299.9A7.748,7.748,0,0,1,456.914,307.681Z" transform="translate(-52.76 -90.91)" fill="#fff"/>
        <path id="Path_14" data-name="Path 14" d="M472.7,98.358H146.034V93.953c.009-4.784,3.6-8.665,8.03-8.673h310.6c4.426,0,8.021,3.881,8.03,8.673Z" transform="translate(-50.612 -85.279)" fill="#3f3d56"/>
        <ellipse id="Ellipse_2" data-name="Ellipse 2" cx="2.078" cy="2.246" rx="2.078" ry="2.246" transform="translate(107.933 4.311)" fill="#fff"/>
        <ellipse id="Ellipse_3" data-name="Ellipse 3" cx="2.078" cy="2.246" rx="2.078" ry="2.246" transform="translate(115.818 4.311)" fill="#fff"/>
        <ellipse id="Ellipse_4" data-name="Ellipse 4" cx="2.078" cy="2.246" rx="2.078" ry="2.246" transform="translate(123.695 4.311)" fill="#fff"/>
        <path id="Path_15" data-name="Path 15" d="M321.293,161.235H264.666a3.453,3.453,0,0,1,0-6.883h56.627a3.452,3.452,0,0,1,0,6.883Z" transform="translate(-68.772 -98.905)" fill="#ccc"/>
        <path id="Path_16" data-name="Path 16" d="M404.793,161.235H348.166a3.453,3.453,0,0,1,0-6.883h56.627a3.452,3.452,0,0,1,0,6.883Z" transform="translate(-81.907 -98.905)" fill="#ccc"/>
        <path id="Path_17" data-name="Path 17" d="M396.975,177.474H298.463a3.453,3.453,0,0,1,0-6.884h98.512a3.453,3.453,0,0,1,0,6.884Z" transform="translate(-74.089 -102.108)" fill="#ccc"/>
        <path id="Path_18" data-name="Path 18" d="M321.293,144.773H264.666a3.448,3.448,0,0,1,0-6.875h56.627a3.448,3.448,0,0,1,.009,6.875Z" transform="translate(-68.772 -95.659)" fill="#ccc"/>
        <path id="Path_19" data-name="Path 19" d="M365.84,145H349.753a3.453,3.453,0,0,1,0-6.884H365.84a3.452,3.452,0,0,1,0,6.884Z" transform="translate(-82.156 -95.702)" fill="#ccc"/>
        <path id="Path_20" data-name="Path 20" d="M280.743,177.476H264.656a3.448,3.448,0,0,1,0-6.875h16.087a3.448,3.448,0,0,1,.009,6.875Z" transform="translate(-68.771 -102.11)" fill="#ccc"/>
        <path id="Path_21" data-name="Path 21" d="M321.293,313.325H264.666a3.453,3.453,0,0,1,0-6.884h56.627a3.453,3.453,0,0,1,0,6.884Z" transform="translate(-68.772 -128.907)" fill="#ccc"/>
        <path id="Path_22" data-name="Path 22" d="M404.793,313.325H348.166a3.453,3.453,0,0,1,0-6.884h56.627a3.453,3.453,0,0,1,0,6.884Z" transform="translate(-81.907 -128.907)" fill="#ccc"/>
        <path id="Path_23" data-name="Path 23" d="M396.975,329.564H298.463a3.453,3.453,0,0,1,0-6.884h98.512a3.448,3.448,0,0,1,.009,6.875Z" transform="translate(-74.089 -132.111)" fill="#ccc"/>
        <path id="Path_24" data-name="Path 24" d="M321.293,296.85H264.666a3.453,3.453,0,0,1,0-6.884h56.627a3.453,3.453,0,0,1,0,6.884Z" transform="translate(-68.772 -125.657)" fill="#ccc"/>
        <path id="Path_25" data-name="Path 25" d="M365.84,297.075H349.753a3.453,3.453,0,0,1,0-6.884H365.84a3.453,3.453,0,0,1,0,6.884Z" transform="translate(-82.156 -125.702)" fill="#ccc"/>
        <path id="Path_26" data-name="Path 26" d="M280.743,329.564H264.656a3.453,3.453,0,0,1,0-6.884h16.087a3.448,3.448,0,0,1,.009,6.875C280.752,329.564,280.752,329.564,280.743,329.564Z" transform="translate(-68.771 -132.111)" fill="#ccc"/>
        <path id="Path_27" data-name="Path 27" d="M310.091,255.473a4.38,4.38,0,0,1-3.207-1.42l-21.29-22.716a5.068,5.068,0,0,1-.036-6.78c.009-.017.027-.026.036-.043l21.2-22.63a4.45,4.45,0,0,1,6.612.026h0a5.377,5.377,0,0,1,0,7.167l-15.753,17.028a3.008,3.008,0,0,0,0,4.01l15.672,16.933a5.218,5.218,0,0,1,.009,6.978,4.435,4.435,0,0,1-3.243,1.446Z" transform="translate(-72.357 -107.994)" fill="#605bb7"/>
        <path id="Path_28" data-name="Path 28" d="M354.283,255.472a4.76,4.76,0,0,1-4.571-4.93,5.16,5.16,0,0,1,1.337-3.5l15.672-16.933a3.008,3.008,0,0,0,0-4.01l-15.753-17.028a5.367,5.367,0,0,1-.009-7.167h.009a4.456,4.456,0,0,1,6.612-.026l21.2,22.63a5.068,5.068,0,0,1,.036,6.78c-.009.017-.027.026-.036.043l-21.29,22.716A4.372,4.372,0,0,1,354.283,255.472Z" transform="translate(-82.631 -107.993)" fill="#605bb7"/>
      </g>
    </g>
    <g id="Mask_Group_2" data-name="Mask Group 2" transform="translate(293.723 183.352) rotate(-16)" clip-path="url(#clip-path-2)">
      <g id="python-bg" transform="translate(0 0.074)">
        <ellipse id="Ellipse_16" data-name="Ellipse 16" cx="14.844" cy="16.284" rx="14.844" ry="16.284" fill="gray"/>
        <path id="Path_29" data-name="Path 29" d="M14.754,3.61C8.282,3.61,8.691,6.6,8.691,6.6L8.7,9.687h6.175v.924H6.241S2.1,10.112,2.1,17.056s3.614,6.7,3.614,6.7h2.16V20.532s-.119-3.844,3.555-3.844h6.123A3.355,3.355,0,0,0,21,13.155V7.209S21.515,3.61,14.754,3.61ZM11.348,5.687a1.144,1.144,0,0,1,1.113,1.178h0a1.142,1.142,0,0,1-1.106,1.178h0a1.144,1.144,0,0,1-1.113-1.178h0a1.138,1.138,0,0,1,1.106-1.178Z" transform="translate(-0.541 -0.805)" fill="url(#linear-gradient)"/>
        <path id="Path_30" data-name="Path 30" d="M17.227,32.084c6.472,0,6.064-2.985,6.064-2.985l-.007-3.092H17.108v-.924h8.624s4.141.5,4.141-6.445-3.614-6.7-3.614-6.7H24.1v3.222s.119,3.844-3.555,3.844H14.421a3.355,3.355,0,0,0-3.444,3.533v5.946c.007,0-.512,3.6,6.249,3.6Zm3.4-2.077a1.144,1.144,0,0,1-1.113-1.178h0a1.142,1.142,0,0,1,1.106-1.178h0a1.144,1.144,0,0,1,1.113,1.178h0a1.138,1.138,0,0,1-1.106,1.178Z" transform="translate(-2.829 -2.322)" fill="url(#linear-gradient-2)"/>
      </g>
    </g>
    <g id="Mask_Group_3" data-name="Mask Group 3" transform="translate(522.846 438.169)" clip-path="url(#clip-path-3)">
      <g id="react-bg" transform="translate(0.026 0.152)">
        <ellipse id="Ellipse_17" data-name="Ellipse 17" cx="16.601" cy="15.545" rx="16.601" ry="15.545" fill="gray"/>
        <g id="Group_1" data-name="Group 1" transform="translate(2.202 2.943)">
          <path id="Path_31" data-name="Path 31" d="M31.706,16.445c0-1.85-2.387-3.6-6.048-4.682.844-3.613.472-6.484-1.189-7.41a2.641,2.641,0,0,0-1.316-.319V5.3a1.3,1.3,0,0,1,.666.152c.8.447,1.147,2.13.877,4.3-.067.534-.169,1.093-.3,1.667a29.244,29.244,0,0,0-3.729-.622,28.071,28.071,0,0,0-2.446-2.831C20.141,6.244,21.937,5.3,23.152,5.3V4.035c-1.611,0-3.729,1.117-5.863,3.047-2.134-1.922-4.243-3.023-5.863-3.023V5.327c1.215,0,3.02.941,4.926,2.648a27.743,27.743,0,0,0-2.421,2.831,28.264,28.264,0,0,0-3.737.622,15.507,15.507,0,0,1-.3-1.651c-.278-2.169.067-3.86.86-4.307a1.328,1.328,0,0,1,.675-.152V4.058a2.7,2.7,0,0,0-1.324.319C8.457,5.3,8.086,8.166,8.938,11.771,5.285,12.864,2.907,14.6,2.907,16.445s2.387,3.6,6.048,4.682c-.844,3.613-.472,6.484,1.189,7.41a2.651,2.651,0,0,0,1.324.319c1.611,0,3.729-1.117,5.863-3.047,2.134,1.922,4.252,3.023,5.863,3.023a2.7,2.7,0,0,0,1.324-.319c1.653-.917,2.016-3.789,1.164-7.394C29.327,20.034,31.706,18.288,31.706,16.445Zm-7.643-3.789c-.219.734-.489,1.492-.793,2.241-.245-.455-.489-.909-.768-1.364s-.557-.9-.844-1.332C22.486,12.33,23.3,12.473,24.063,12.657ZM21.372,18.71c-.456.766-.928,1.492-1.417,2.169-.877.072-1.763.112-2.649.112s-1.771-.04-2.64-.112c-.489-.678-.962-1.4-1.417-2.161-.447-.742-.852-1.5-1.223-2.265.363-.758.776-1.523,1.215-2.265.456-.766.928-1.492,1.417-2.169.877-.072,1.763-.112,2.649-.112s1.771.04,2.64.112c.489.678.962,1.4,1.417,2.161.447.742.852,1.5,1.223,2.265C22.216,17.2,21.811,17.961,21.372,18.71Zm1.9-.742a21.456,21.456,0,0,1,.81,2.265c-.768.183-1.577.335-2.421.455.287-.439.574-.885.844-1.348S23.026,18.423,23.27,17.969ZM17.315,24.03a23.069,23.069,0,0,1-1.628-1.819c.531.024,1.071.04,1.611.04s1.1-.008,1.628-.04A20.237,20.237,0,0,1,17.315,24.03Zm-4.361-3.342c-.835-.12-1.637-.263-2.4-.447.219-.734.489-1.492.793-2.241.245.455.489.909.768,1.364S12.667,20.258,12.953,20.688ZM17.289,8.86a23.069,23.069,0,0,1,1.628,1.819c-.531-.024-1.071-.04-1.611-.04s-1.1.008-1.628.04A22.707,22.707,0,0,1,17.289,8.86Zm-4.344,3.35c-.287.439-.574.885-.844,1.348s-.523.909-.759,1.364a21.456,21.456,0,0,1-.81-2.265C11.292,12.481,12.1,12.33,12.945,12.21ZM7.631,19.324c-2.075-.861-3.425-1.986-3.425-2.871s1.35-2.026,3.425-2.879c.506-.207,1.054-.4,1.628-.574a26.737,26.737,0,0,0,1.324,3.462,25.137,25.137,0,0,0-1.3,3.446C8.693,19.723,8.145,19.532,7.631,19.324Zm3.163,8.12c-.8-.447-1.147-2.13-.877-4.3.067-.534.169-1.093.3-1.667a29.244,29.244,0,0,0,3.729.622,28.152,28.152,0,0,0,2.438,2.839c-1.915,1.723-3.712,2.664-4.926,2.664A1.547,1.547,0,0,1,10.794,27.444Zm13.919-4.331c.278,2.169-.067,3.86-.86,4.307a1.328,1.328,0,0,1-.675.152c-1.215,0-3.02-.941-4.926-2.648a27.743,27.743,0,0,0,2.421-2.831,28.264,28.264,0,0,0,3.737-.622A15.371,15.371,0,0,1,24.713,23.113Zm2.261-3.789c-.506.207-1.054.4-1.628.574a26.737,26.737,0,0,0-1.324-3.462,25.137,25.137,0,0,0,1.3-3.446c.582.175,1.13.367,1.653.582,2.075.861,3.425,1.986,3.425,2.871S29.049,18.471,26.974,19.324Z" transform="translate(-2.907 -4.035)" fill="#61dafb"/>
          <ellipse id="Ellipse_18" data-name="Ellipse 18" cx="2.683" cy="2.6" rx="2.683" ry="2.6" transform="translate(11.709 9.81)" fill="#61dafb"/>
        </g>
      </g>
    </g>
    <g id="Mask_Group_11" data-name="Mask Group 11" transform="translate(255.052 458.169)" clip-path="url(#clip-path-4)">
      <g id="node.sass-bg" transform="translate(-0.314)">
        <ellipse id="Ellipse_27" data-name="Ellipse 27" cx="15.015" cy="15.297" rx="15.015" ry="15.297" fill="gray"/>
        <path id="Path_42" data-name="Path 42" d="M12.149,19.022a9.2,9.2,0,0,0-1.374,1.017c-.713.673-.863,1.606-.488,1.82.353.2,1.164-.038,1.749-.673a2.514,2.514,0,0,0,.608-2.463c-.03.015-.06.038-.09.054h0l-.038.023c-.158.092-.278.168-.368.222Zm10.526-.306c-.21.459-.225.6-.158.65a1.1,1.1,0,0,0,.758-1.423A2.487,2.487,0,0,0,22.674,18.716Zm3.3-1.384a3.989,3.989,0,0,0-1.959.222,2.324,2.324,0,0,1,.173.734,1.538,1.538,0,0,1-.751,1.247,2.638,2.638,0,0,1-.683.352,1.07,1.07,0,0,1-.541.107c-.345-.069-.526-.375-.293-1.04A3.453,3.453,0,0,1,23,17.561a5.4,5.4,0,0,1-.36-.811,6.476,6.476,0,0,1-.2-.811,17.244,17.244,0,0,1-1.111,1.912c-.038.054-.075.107-.105.153a2.629,2.629,0,0,1,.233.887,1.414,1.414,0,0,1-.616,1.254,2.458,2.458,0,0,1-.638.337,2.288,2.288,0,0,1-.743.168.8.8,0,0,1-.5-.076c-.15-.107-.165-.245-.09-.436a11.823,11.823,0,0,1,.953-1.185l.315-.39v-.008s.075-.092.2-.26a6.388,6.388,0,0,1-.42-.941,6.476,6.476,0,0,1-.2-.811S19.243,17.8,18.725,18.8c-.4.772-.661,1.247-.781,1.453v.008a.8.8,0,0,1-.045.076l-.023.038h0c-.135.2-.428.581-.728.581-.811,0-.518-1.644-.518-1.644s-.24.612-.5,1.132c-.218.428-.42.788-.856.788a.642.642,0,0,1-.488-.161,2.746,2.746,0,0,1-.6-1.943,5.011,5.011,0,0,1,.263-1.338c-.248.138-.5.275-.743.421l-.405.237.015.023A3.394,3.394,0,0,1,13,21.607,3.176,3.176,0,0,1,9.6,22.983c-.428-.115-1.074-.994-.518-2.218.488-1.078,2.447-2.1,2.965-2.356l.143-.076c-1.029-.895-3.6-2.1-3.956-3.962-.105-.52.143-1.774,1.689-3.2a14.081,14.081,0,0,1,4.767-2.723c2.8-.987,5.758-.405,6.216,1.369.45,1.744-1.074,3.832-3.026,4.589a6.127,6.127,0,0,1-3.776.367,1.9,1.9,0,0,1-1.164-.91c-.038-.1-.105-.26,0-.321.06-.038.09-.023.255.161a2.417,2.417,0,0,0,2.035.512c3.221-.359,5.158-2.845,4.55-4.191-.428-.941-2.913-1.361-6.014.176-3.784,1.874-3.994,3.426-4.024,4.015-.09,1.614,2,2.47,3.138,3.671l.045.046c.21-.115.435-.237.653-.359.45-.245.908-.5,1.359-.742a2.787,2.787,0,0,1,1.794-1.208c.931,0,.616,1.331.616,1.331s.023-.061.045-.061a.373.373,0,0,1,.42-.069c.293.107.233.314.233.337,0,.038-.353,1.224-.5,1.989a1.268,1.268,0,0,0-.008.627c.03,0,.09-.092.143-.191h0s.045-.076.113-.207l.015-.031h0c.113-.222.225-.451.33-.681.263-.566,1.246-2.761,1.329-3.006s.128-.5.173-.6.39-.191.8-.184.45.176.45.214a6.653,6.653,0,0,0-.24.857,2.3,2.3,0,0,0,.315,1.484A14.956,14.956,0,0,0,22.2,15.052a3.915,3.915,0,0,1,.173-.6c.045-.107.39-.191.8-.184s.45.176.45.214a6.653,6.653,0,0,0-.24.857,2.5,2.5,0,0,0,.038.8,3.8,3.8,0,0,0,.413.948,4.213,4.213,0,0,1,1.832-.428,3.394,3.394,0,0,1,.811.084V11.113a1.1,1.1,0,0,0-.548-.964L16.653,4.834a1.109,1.109,0,0,0-1.111,0l-9.2,5.3a1.083,1.083,0,0,0-.526.964V21.706a1.089,1.089,0,0,0,.533.964l9.212,5.3a1.109,1.109,0,0,0,1.111,0l9.219-5.3a1.1,1.1,0,0,0,.548-.964V17.423a2.519,2.519,0,0,0-.465-.092Zm-9.925-.558a4.456,4.456,0,0,0-.691,1.262c-.315.941-.18,1.9.045,1.958.263.069.683-1.193.886-1.69a6.533,6.533,0,0,0,.518-1.866c-.09-.13-.443-.015-.758.337Zm3.589,3.189s-.06.061-.038.076c.038.023.113-.008.2-.054.24-.153.788-.535.8-1.094v-.046c-.113.145-.225.291-.345.436C20.077,19.488,19.641,19.962,19.641,19.962Z" transform="translate(-1.215 -1.102)" fill="#8cc84b"/>
      </g>
    </g>
    <g id="Mask_Group_4" data-name="Mask Group 4" transform="translate(664.885 152.495)" clip-path="url(#clip-path-5)">
      <g id="angular-bg" transform="translate(0.432)">
        <ellipse id="Ellipse_19" data-name="Ellipse 19" cx="15.951" cy="16.674" rx="15.951" ry="16.674" fill="#b3b3b3"/>
        <path id="Path_32" data-name="Path 32" d="M5.32,8.642l11.549-4.7L28.736,8.559,26.814,26.025,16.869,32.32,7.083,26.108Z" transform="translate(-1.422 -0.655)" fill="#e23237"/>
        <path id="Path_33" data-name="Path 33" d="M31.668,8.559,19.8,3.94V32.32l9.945-6.278C29.745,26.033,31.668,8.559,31.668,8.559Z" transform="translate(-4.353 -0.655)" fill="#b52e31"/>
        <path id="Path_34" data-name="Path 34" d="M18,7.91,10.8,26.218l2.688-.05,1.444-4.127h6.46l1.579,4.177,2.568.05C25.547,26.268,18,7.91,18,7.91Zm.016,5.869L20.45,19.59H15.872C15.88,19.59,18.018,13.779,18.018,13.779Z" transform="translate(-2.531 -1.315)" fill="#fff"/>
      </g>
    </g>
    <g id="Mask_Group_10" data-name="Mask Group 10" transform="translate(354.444 49.457)" clip-path="url(#clip-path-6)">
      <g id="sass-bg" transform="translate(0.383)">
        <ellipse id="Ellipse_25" data-name="Ellipse 25" cx="16.377" cy="16.941" rx="16.377" ry="16.941" fill="#ccc"/>
        <path id="Path_41" data-name="Path 41" d="M27.575,18.273a5.887,5.887,0,0,0-2.432.525,4.534,4.534,0,0,1-.549-1.169,2.955,2.955,0,0,1-.049-.983,7.474,7.474,0,0,1,.319-1.067c-.008-.042-.057-.263-.6-.263s-1.007.1-1.065.229a6.836,6.836,0,0,0-.229.745,17.531,17.531,0,0,1-1.646,2.939,2.69,2.69,0,0,1-.426-1.855,7.474,7.474,0,0,1,.319-1.067c-.008-.042-.057-.263-.6-.263s-1.007.1-1.065.229-.106.449-.229.745c-.106.3-1.425,3.024-1.761,3.727-.172.364-.328.652-.434.847s-.008.017-.016.034c-.1.169-.147.263-.147.263V21.9c-.074.119-.156.237-.188.237a1.526,1.526,0,0,1,.008-.779c.2-.94.663-2.414.663-2.465,0-.025.09-.28-.3-.415a.491.491,0,0,0-.549.085c-.033,0-.057.076-.057.076s.426-1.66-.811-1.66a3.678,3.678,0,0,0-2.375,1.508c-.336.169-1.048.534-1.81.915-.287.144-.59.3-.868.449l-.057-.059c-1.5-1.491-4.283-2.55-4.16-4.549.041-.728.311-2.651,5.331-4.972,4.111-1.906,7.4-1.381,7.976-.22.811,1.66-1.761,4.752-6.035,5.192a3.388,3.388,0,0,1-2.7-.635c-.229-.229-.254-.237-.344-.195-.139.068-.049.271,0,.4a2.477,2.477,0,0,0,1.539,1.127,8.77,8.77,0,0,0,5-.457c2.588-.932,4.61-3.524,4.012-5.692-.606-2.2-4.528-2.931-8.246-1.7a19.237,19.237,0,0,0-6.33,3.38c-2.047,1.779-2.375,3.329-2.236,3.981.475,2.3,3.881,3.8,5.249,4.913-.066.034-.131.068-.188.1-.68.313-3.284,1.575-3.931,2.914-.737,1.516.115,2.609.68,2.753a4.344,4.344,0,0,0,4.52-1.7,3.96,3.96,0,0,0,.4-3.888l-.016-.025.532-.3c.344-.195.688-.364.991-.517a5.682,5.682,0,0,0-.352,1.66,3.3,3.3,0,0,0,.8,2.414.957.957,0,0,0,.647.195c.581,0,.843-.449,1.13-.974.36-.652.671-1.406.671-1.406s-.393,2.041.68,2.041c.393,0,.786-.474.966-.72v.008a.389.389,0,0,1,.033-.051c.025-.034.041-.059.066-.093v-.008c.156-.254.508-.839,1.032-1.8.68-1.245,1.327-2.8,1.327-2.8a9.481,9.481,0,0,0,.254,1.008,8.472,8.472,0,0,0,.565,1.169c-.156.2-.254.322-.254.322l.008.008c-.123.152-.27.322-.418.491a14.26,14.26,0,0,0-1.261,1.474.38.38,0,0,0,.115.534,1.1,1.1,0,0,0,.663.1,3.083,3.083,0,0,0,.991-.212,3.4,3.4,0,0,0,.852-.415A1.721,1.721,0,0,0,22,21.093a3.007,3.007,0,0,0-.311-1.1c.049-.068.1-.127.139-.195A20.761,20.761,0,0,0,23.3,17.425a9.481,9.481,0,0,0,.254,1.008,7.413,7.413,0,0,0,.475,1.008A4.362,4.362,0,0,0,22.6,21.169c-.311.83-.066,1.211.385,1.3a1.491,1.491,0,0,0,.721-.136,3.633,3.633,0,0,0,.909-.432,1.883,1.883,0,0,0,1-1.542,2.781,2.781,0,0,0-.229-.915,5.509,5.509,0,0,1,2.6-.28c2.334.254,2.8,1.609,2.71,2.177a1.475,1.475,0,0,1-.737.974c-.164.093-.213.127-.2.195.025.1.1.1.237.076a1.726,1.726,0,0,0,1.269-1.508c.106-1.347-1.261-2.812-3.693-2.8ZM9.552,23.931a2.394,2.394,0,0,1-2.317.83c-.5-.271-.3-1.423.647-2.262A12.57,12.57,0,0,1,9.7,21.237c.106-.068.278-.152.475-.271l.049-.025c.033-.017.082-.042.123-.068A2.934,2.934,0,0,1,9.552,23.931Zm5.65-3.574c-.27.61-.835,2.177-1.179,2.092-.295-.076-.475-1.262-.057-2.431a5.341,5.341,0,0,1,.917-1.567c.426-.44.884-.584,1-.407A7.824,7.824,0,0,1,15.2,20.356Zm4.651,2.075c-.115.051-.221.093-.27.068-.033-.025.049-.1.049-.1s.581-.584.811-.847c.131-.152.287-.339.459-.542v.059C20.9,21.771,20.181,22.237,19.853,22.431Zm3.595-.762c-.082-.059-.074-.237.213-.8a2.948,2.948,0,0,1,.794-.957,1.338,1.338,0,0,1,.082.424A1.413,1.413,0,0,1,23.448,21.669Z" transform="translate(-1.111 -1.146)" fill="#cf649a"/>
      </g>
    </g>
    <g id="Mask_Group_9" data-name="Mask Group 9" transform="translate(397.447 457.015)" clip-path="url(#clip-path-7)">
      <g id="php-bg" transform="translate(-0.314)">
        <ellipse id="Ellipse_24" data-name="Ellipse 24" cx="14.934" cy="12.548" rx="14.934" ry="12.548" fill="#8993be"/>
        <path id="Path_40" data-name="Path 40" d="M5.62,21.839,7.255,8.463h3.786c1.635.163,2.457,1.487,2.457,3.8,0,3.965-1.941,6.274-3.681,6.111H7.972l-.411,3.469ZM8.375,15.9l.515-4.956H10.22c.717,0,1.225.5,1.225,1.487-.1,2.8-.918,3.3-1.844,3.469Zm4.741,2.478L14.752,5h1.941l-.411,3.469h1.844c1.635.163,2.248,1.487,2.046,3.137l-.717,6.77H17.41l.717-6.111c.1-.828.1-1.324-.612-1.324H15.984l-.918,7.428H13.117Zm6.205,3.463L20.957,8.463h3.786c1.635.163,2.457,1.487,2.457,3.8,0,3.965-1.941,6.274-3.681,6.111H21.674l-.411,3.469ZM22.085,15.9l.515-4.95h1.329c.717,0,1.225.5,1.225,1.487-.1,2.8-.918,3.3-1.844,3.469H22.085Z" transform="translate(-1.189 -1.863)" fill="#232531" fill-rule="evenodd"/>
      </g>
    </g>
    <line id="Line_1" data-name="Line 1" x1="257.5" y2="28.669" transform="translate(55 528.5)" fill="none" stroke="#707070" stroke-width="1"/>
    <g id="Mask_Group_15" data-name="Mask Group 15" transform="translate(72.893 501.513) rotate(11)" clip-path="url(#clip-path-8)">
      <g id="aa1" transform="translate(0.91 -0.042)">
        <path id="e6d48fe3-12d5-4a4a-b92a-b78b486fac3b" d="M2.74,37.914A11.1,11.1,0,0,0,13.813,35.88c3.878-3.39,5.1-8.99,6.085-14.164L22.823,6.4l-6.128,4.395C12.287,13.956,7.779,17.221,4.732,21.8S.353,32.64,2.8,37.6" transform="translate(-1.436 -6.397)" fill="#3fff95"/>
        <path id="a99fcdd9-ae8f-4ca7-ba44-ef69baf9e145" d="M4.153,55.573C3.379,49.709,2.59,43.783,3.128,37.856a28.565,28.565,0,0,1,5.153-14.6,23.611,23.611,0,0,1,5.978-5.65c.595-.389,1.147.59.552.992A22.9,22.9,0,0,0,6.045,29.619c-1.9,5.048-2.208,10.56-1.878,15.934.2,3.252.624,6.479,1.046,9.706a.6.6,0,0,1-.38.7.548.548,0,0,1-.681-.389Z" transform="translate(-1.903 -4.443)" fill="#3f3d56"/>
        <path id="bbeda2f4-be86-4904-b4b0-963c2a3b729b" d="M13.018,43.31a8.322,8.322,0,0,0,7.354,3.955C24.1,47.077,27.2,44.377,30,41.8l8.264-7.609-5.469-.276c-3.935-.2-7.97-.377-11.719.892s-7.2,4.307-7.884,8.35" transform="translate(-5.214 -1.585)" fill="#3fff95"/>
        <path id="a6e93fc3-3616-4120-bc87-b7b79f9b3178" d="M1.46,55.39c3.713-6.856,8.02-14.465,15.718-16.9a16.856,16.856,0,0,1,6.608-.716c.7.063.523,1.193-.172,1.13a15.751,15.751,0,0,0-10.55,2.913,28.2,28.2,0,0,0-7.253,8.162c-1.2,1.909-2.279,3.893-3.354,5.876C2.12,56.482,1.116,56.03,1.46,55.39Z" transform="translate(-1.39 -0.894)" fill="#3f3d56"/>
      </g>
    </g>
    <g id="Mask_Group_35" data-name="Mask Group 35" transform="translate(15.317 515.909) rotate(-48)" clip-path="url(#clip-path-9)">
      <g id="aa1-2" data-name="aa1" transform="translate(1.609 0.181)">
        <path id="e6d48fe3-12d5-4a4a-b92a-b78b486fac3b-2" data-name="e6d48fe3-12d5-4a4a-b92a-b78b486fac3b" d="M2.161,35.065c6.755,1.537,14.266.685,19.8-2.263,6.934-3.772,9.113-10,10.882-15.758L38.076,0,27.117,4.89C19.234,8.41,11.171,12.042,5.724,17.141S-2.108,29.2,2.276,34.716" transform="translate(0.171)" fill="#3fff95"/>
        <path id="a99fcdd9-ae8f-4ca7-ba44-ef69baf9e145-2" data-name="a99fcdd9-ae8f-4ca7-ba44-ef69baf9e145" d="M2.149,42.345C.765,35.821-.645,29.227.316,22.634A25.541,25.541,0,0,1,9.532,6.386,40.551,40.551,0,0,1,20.222.1c1.064-.433,2.051.657.987,1.1C14.108,4.109,8.622,8.412,5.533,13.469,2.136,19.085,1.585,25.218,2.175,31.2A101.11,101.11,0,0,0,4.046,42c.128.335-.179.685-.679.782a1.133,1.133,0,0,1-1.218-.433Z" transform="translate(1.874 14.541)" fill="#3f3d56"/>
        <path id="bbeda2f4-be86-4904-b4b0-963c2a3b729b-2" data-name="bbeda2f4-be86-4904-b4b0-963c2a3b729b" d="M0,10.606c2.9,2.864,7.883,4.526,13.151,4.4,6.665-.21,12.215-3.213,17.214-6.077L45.144.464,35.364.157c-7.037-.224-14.253-.419-20.957.992S1.525,5.94.308,10.439" transform="translate(13.957 35.816)" fill="#3fff95"/>
        <path id="a6e93fc3-3616-4120-bc87-b7b79f9b3178-2" data-name="a6e93fc3-3616-4120-bc87-b7b79f9b3178" d="M.127,19.677C6.766,12.049,14.47,3.583,28.236.873a47.653,47.653,0,0,1,11.818-.8c1.256.07.936,1.327-.308,1.257A41.574,41.574,0,0,0,20.879,4.575,43.113,43.113,0,0,0,7.907,13.656c-2.153,2.123-4.076,4.331-6,6.538C1.306,20.892-.489,20.389.127,19.677Z" transform="translate(0 40.953)" fill="#3f3d56"/>
      </g>
    </g>
    <g id="Mask_Group_12" data-name="Mask Group 12" transform="translate(556.19 161.227)" clip-path="url(#clip-path-10)">
      <g id="jQery-bg" transform="translate(0.013)">
        <ellipse id="Ellipse_28" data-name="Ellipse 28" cx="14.054" cy="13.942" rx="14.054" ry="13.942" fill="#999"/>
        <path id="Path_43" data-name="Path 43" d="M17.107,17.463h0l-.155.85Zm.773,1.84h0Zm-.042,1.269h0l-1,.007Zm.211-1.262h0Zm-.126,1.157.176-1.053-.176,1.053ZM21.59,15.63l-.323,2.412Zm-.829,0-.246,1.8.246-1.8Z" transform="translate(-5.016 -4.735)" fill="#131b28"/>
        <path id="Path_44" data-name="Path 44" d="M22.2,15.48h-.689c-.035,0-.077.049-.084.112l-.246,1.8-.246,1.8c-.007.063-.049.112-.084.112h-.492c-.485,0-.429-.53-.33-1.262v-.021l.014-.091v-.014l.021-.188.021-.2c.007-.063.021-.146.028-.2l.112-.864.112-.864c.007-.063-.014-.112-.056-.112h-.71c-.035,0-.077.049-.084.112l-.155,1.15-.155,1.15h0l-.014.1c-.176,1.276-.126,2.489.822,2.523h1.525c.035,0,.077-.049.084-.112L21.921,18l.323-2.412C22.265,15.529,22.237,15.48,22.2,15.48Zm2.755,3.827c.035,0,.063.049.056.112l-.07.523m-.063.516.07-.523-.07.523Zm-.084.112h0c-.2,0-.815.007-1.272.007C24.078,20.576,24.795,20.569,24.795,20.569Zm-1.687-1.931c0-.056.042-.153.077-.153H23.1C23.066,19.1,23.108,18.638,23.108,18.638Z" transform="translate(-5.684 -4.689)" fill="#131b28"/>
        <path id="Path_45" data-name="Path 45" d="M20.775,20.57h0Zm1.37-1.269c.035,0,.063.049.056.112l-.07.523-.007.084M21.1,20.57Zm-.169,0h0Zm-.049,0h0Zm-.056,0h0Zm.1,0h0Zm.176,0h0Zm.97-.119.056-.432-.056.432Zm-1.209.119h0Zm-.1,0h0Zm.049,0h0Zm-10.1-1.924.105-.753-.119.864-.119.878.105-.774C10.691,18.8,10.705,18.7,10.712,18.646ZM12,15.46h-.759c-.035,0-.077.049-.084.1l-.07.5-.07.5c-.007.063.014.1.056.1h.766c.035,0,.077-.049.084-.112l.07-.5.07-.5h0C12.061,15.509,12.033,15.46,12,15.46Zm-.169,1.673h0L11.6,18.764C11.6,18.771,11.829,17.133,11.829,17.133Zm-2.2,5.416s.379.007.625.007c-.19,0-.492-.007-.625-.007Zm1.293-5.416-.105.753Z" transform="translate(-2.872 -4.683)" fill="#131b28"/>
        <path id="Path_46" data-name="Path 46" d="M11.752,17.313h-.766c-.035,0-.077.049-.084.112l-.105.753-.105.753c-.007.063-.021.16-.028.216l-.105.774-.105.774c-.007.07-.021.146-.035.216,0,0-.141.676-.379.669h-.028c-.119-.007-.211-.007-.211-.007h0c-.035,0-.077.049-.084.1l-.077.53-.077.53c-.007.056.014.1.056.112.134,0,.443.007.625.007.6,0,.914-.53,1.117-2.042L11.6,19.07l.225-1.631C11.815,17.362,11.794,17.313,11.752,17.313Zm10.857,3.478c-.035,0-.063-.049-.056-.112l.576-4.28m.281,4.287.232-1.826Z" transform="translate(-2.851 -4.968)" fill="#131b28"/>
        <path id="Path_47" data-name="Path 47" d="M28.066,20.716a.66.66,0,0,1,.007-.16l.274-2.029-.288,2.14c-.007.063.014.112.056.112h.07C28.144,20.764,28.066,20.743,28.066,20.716Zm.8.028a.234.234,0,0,1-.105.028h.07c.035,0,.077-.049.084-.112l.014-.112A.633.633,0,0,1,28.868,20.743Zm.162-1,.105-.809h0Zm2.263-3.081.035.209c.007.063-.014.1-.056.1m-2.347,3.569.105-.8Zm2.34-4.092.028.216Zm-2.136,2.482c.007-.063.021-.153.028-.216l.112-.816-.126.927Zm-.485-2.628c-.007.056-.014.132-.021.181l-.274,2.029.288-2.14Z" transform="translate(-8.351 -4.94)" fill="#131b28"/>
        <path id="Path_48" data-name="Path 48" d="M31.326,16.626l-.035-.209-.028-.216-.014-.1c-.063-.383-.246-.606-.639-.606H28.783c-.035,0-.077.049-.084.112h0l-.028.209-.035.251-.007.07-.288,2.14L28.066,20.3a.67.67,0,0,0-.007.16c.007.028.077.056.119.056h.576a.234.234,0,0,0,.105-.028.5.5,0,0,0,.056-.2l.105-.8.105-.8h0l.014-.1.126-.927.112-.816c.007-.063.049-.1.084-.1h1.813C31.312,16.738,31.333,16.689,31.326,16.626Z" transform="translate(-8.35 -4.692)" fill="#131b28"/>
        <path id="Path_49" data-name="Path 49" d="M29.247,14.157h-.724a.169.169,0,0,0-.112.091l-1.286,2.984c-.021.049-.049.042-.056-.014l-.091-.655c-.007-.063-.049-.1-.084-.1H26.07c-.035,0-.063.049-.049.1l.372,2.056a.742.742,0,0,1,0,.216l-.162,1c-.007.056.014.1.049.1H27.1c.035,0,.077-.049.084-.1l.162-1a.894.894,0,0,1,.056-.2l2.08-4.392c.021-.049.014-.091-.028-.091A1.982,1.982,0,0,0,29.247,14.157ZM22.7,16.73h0c-.007.063-.042.112-.084.112H21.566c-.035,0-.056-.042-.049-.091v-.007h0v-.007l.007-.028c.1-.418.3-.7.689-.7C22.641,16.019,22.726,16.353,22.7,16.73Zm-.309-1.917c-1.342,0-1.658,1.3-1.841,2.6-.176,1.331-.162,2.572,1.223,2.572h.386c.365,0,.738-.007.885-.007.035,0,.077-.049.084-.112l.063-.432.014-.084.07-.523c.007-.063-.014-.112-.056-.112H21.967c-.5,0-.646-.209-.59-.823h2c.035,0,.063-.035.07-.084,0-.007.007-.021.007-.028h0c.3-1.778.211-2.97-1.061-2.97Zm-6.346,1.91-.021.1h0l-.148.85-.148.85c-.007.056-.049.1-.091.1h-.794c-.6,0-.752-.753-.6-1.861.148-1.136.436-1.84,1.033-1.91C16.078,14.764,16.24,15.67,16.043,16.723Zm.548,1.84a20.138,20.138,0,0,0,.464-2.286c.119-1.122-.239-2.747-1.6-2.747s-1.947,1.555-2.171,3.241.07,3.193,1.419,3.179l1.068-.007,1-.007c.035,0,.077-.049.084-.1l.176-1.053c.007-.056-.014-.1-.049-.1H16.64c-.035,0-.049-.035-.049-.077,0-.014,0-.028,0-.035Z" transform="translate(-3.937 -4.098)" fill="#131b28"/>
        <path id="Path_50" data-name="Path 50" d="M27.548,19.33c0,.042-.021.07-.049.07s-.049-.035-.049-.07.021-.07.049-.07S27.548,19.288,27.548,19.33Z" transform="translate(-8.17 -5.834)" fill="#131b28"/>
        <path id="Path_51" data-name="Path 51" d="M3.156,16.4a4.3,4.3,0,0,0-.042,2.879l.021.063c.007.014.007.028.014.042s.007.014.007.021.007.028.014.042.021.049.028.077.007.028.014.042a.257.257,0,0,0,.035.077c.007.014.007.021.014.035a.7.7,0,0,0,.049.1h0a.024.024,0,0,0,.007.014c.014.028.028.063.042.091s.007.021.014.035a.76.76,0,0,0,.056.1c.021.035.035.07.056.1v.007c.035.063.077.125.119.188.007.007.014.021.021.028a1.02,1.02,0,0,1,.063.091c0,.007.007.007.007.014a.61.61,0,0,0,.056.07c.007.007.014.021.021.028s.028.035.042.056l.021.028a.4.4,0,0,0,.049.056l.021.021a.007.007,0,0,0,.007.007.323.323,0,0,0,.049.049l.021.021.077.077.021.021a.351.351,0,0,0,.056.049c.014.007.021.021.035.028s.028.021.042.035L4.224,21c.007.007.014.007.014.014.028.021.056.042.077.056a.473.473,0,0,0,.077.049c.007.007.014.007.021.014.028.014.056.035.084.049l.084.042c.007,0,.014.007.021.007a.432.432,0,0,0,.084.035c1.813.523,2.34-1.729,2.34-1.729a1.511,1.511,0,0,1-1.968.885.432.432,0,0,1-.084-.035c-.035-.014-.07-.035-.1-.049l-.014-.007c-.021-.014-.049-.028-.07-.042s-.014-.007-.021-.014c-.028-.014-.049-.035-.077-.049l-.014-.014L4.6,20.15a.087.087,0,0,1-.056-.028c-.014-.007-.021-.021-.035-.028a.213.213,0,0,1-.056-.056l-.021-.021-.077-.077L4.33,19.92a.422.422,0,0,0-.056-.056l-.021-.021c-.014-.021-.035-.042-.049-.063s-.014-.021-.021-.028a.74.74,0,0,0-.07-.084.532.532,0,0,1-.056-.077l-.007-.007a1.02,1.02,0,0,1-.063-.091.053.053,0,0,1-.014-.028c-.014-.021-.028-.049-.042-.07a.053.053,0,0,1-.014-.028c-.021-.028-.035-.063-.056-.091v-.007c-.021-.035-.035-.063-.056-.1-.007-.007-.007-.021-.014-.028-.014-.028-.028-.049-.042-.077-.007-.007-.007-.021-.014-.028a.635.635,0,0,0-.049-.1A4.544,4.544,0,0,1,3.451,15.8" transform="translate(-0.868 -4.786)" fill="#0868ac"/>
        <path id="Path_52" data-name="Path 52" d="M4.844,15.408A3.135,3.135,0,0,0,4.8,17.513c.035.112.077.216.119.321a1.73,1.73,0,0,0,.141.279c.021.035.042.07.063.1a.036.036,0,0,1,.014.028c.021.028.042.063.063.091v.007h0c.021.035.049.063.07.1.007.007.014.014.014.021.028.028.049.063.077.091h0l.035.035.014.014.056.056.007.007c.014.014.035.028.049.042s.014.007.021.014.021.021.035.028a.007.007,0,0,1,.007.007c.021.021.049.035.07.056a.022.022,0,0,0,.014.007.39.39,0,0,1,.056.042c.007.007.014.007.028.014a.211.211,0,0,0,.056.028c.007.007.014.007.028.014a.378.378,0,0,0,.077.035c1.4.369,1.722-1.345,1.722-1.345a1.106,1.106,0,0,1-1.455.739.712.712,0,0,1-.105-.049A.769.769,0,0,1,6,18.245a.648.648,0,0,0-.056-.035c-.007-.007-.014-.007-.014-.014a.492.492,0,0,1-.07-.056c-.014-.007-.021-.021-.035-.028L5.807,18.1a.3.3,0,0,0-.049-.042c-.007,0-.007-.007-.014-.007l-.056-.056c-.007-.007-.014-.014-.014-.021s-.021-.028-.035-.035a1.045,1.045,0,0,1-.077-.091c-.007-.007-.014-.014-.014-.021a3.221,3.221,0,0,1-.471-2.907" transform="translate(-1.389 -4.519)" fill="#0868ac"/>
        <path id="Path_53" data-name="Path 53" d="M6.262,14.738A1.94,1.94,0,0,0,6.2,15.986a1.589,1.589,0,0,0,.632.948c.014.007.021.014.035.021s.007.007.014.007a.149.149,0,0,0,.049.021c.773.237.984-.627,1.04-.76A.615.615,0,0,1,7.1,16.6c-.028-.014-.063-.028-.091-.042a.916.916,0,0,1-.105-.07.807.807,0,0,1-.19-.188,2.051,2.051,0,0,1-.33-1.819m8.587,7.529-.225.809H14.5l.021-.732-.183.732H14.1l-.007-.809.028-.2h.169l-.035.795.19-.795h.232l-.014.809.183-.809h.148Zm.386.244c.021-.16.014-.188-.035-.188h-.077l-.049.369-.077.383h-.141l.119-.871.014-.132h.134l.014.056a.277.277,0,0,1,.148-.07c.155,0,.148.188.112.446Zm.464-.565c-.063,0-.105-.028-.091-.153s.063-.153.126-.153.105.028.084.153S15.882,21.688,15.819,21.688Zm-.063,1.129h-.141l.028-.39.049-.362-.1-.035.021-.216h.274Zm.611-.788-.176.035-.049.383c-.014.1-.014.132.042.132H16.3l-.028.2a.567.567,0,0,1-.155.049c-.183,0-.183-.16-.148-.4l.049-.376-.1-.035.035-.209h.105l.056-.251h.141l-.035.251H16.4l-.035.216Zm.372.007c-.084,0-.126.07-.141.188l.239-.035C16.845,22.113,16.838,22.036,16.74,22.036Zm-.169.376c-.014.125.021.167.119.167h.246l-.028.188a.76.76,0,0,1-.26.07c-.274,0-.281-.251-.246-.516s.1-.516.365-.516.274.251.2.613C16.986,22.413,16.571,22.413,16.571,22.413Zm.977.4h-.141l.028-.39.1-.746-.1-.035.028-.216h.274Zm.52-.781c-.084,0-.126.07-.141.188l.239-.035C18.166,22.113,18.159,22.036,18.068,22.036Zm-.169.376c-.014.125.021.167.119.167h.246l-.028.188a.76.76,0,0,1-.26.07c-.274,0-.281-.251-.246-.516s.1-.516.365-.516.274.251.2.613C18.307,22.413,17.9,22.413,17.9,22.413Zm1.061-.362h-.232c-.105,0-.119.049-.126.1l-.007.049.337.042a2.444,2.444,0,0,1-.014.265.333.333,0,0,1-.309.321.98.98,0,0,1-.246-.056l.028-.2h.232c.105,0,.119-.042.119-.091l.007-.063-.33-.042a1.093,1.093,0,0,1,.007-.258c.028-.174.126-.328.316-.328a.98.98,0,0,1,.246.056Zm.618,0h-.232c-.105,0-.119.049-.126.1l-.007.049.337.042a2.444,2.444,0,0,1-.014.265.333.333,0,0,1-.309.321.98.98,0,0,1-.246-.056l.028-.2h.232c.105,0,.119-.042.119-.091l.007-.063-.33-.042a1.093,1.093,0,0,1,.007-.258c.028-.174.126-.328.316-.328a.98.98,0,0,1,.246.056Zm.2.927h-.126l.007-.146c-.042-.007-.07-.056-.056-.139.014-.125.063-.153.126-.153s.105.028.084.153Zm.829-.913c-.091,0-.126.091-.148.251s-.014.258.077.258h.126l.07-.509H20.6Zm.211.62-.014.132h-.126l-.021-.063a.455.455,0,0,1-.19.077c-.2,0-.211-.258-.169-.516s.112-.516.309-.516a.444.444,0,0,1,.169.056l.077-.425h.141C20.984,21.43,20.815,22.685,20.815,22.685Zm.513-.634c-.119,0-.162.1-.183.265s-.014.265.105.265.162-.1.183-.265S21.455,22.05,21.328,22.05Zm-.105.781c-.253,0-.274-.251-.239-.516s.126-.516.379-.516.274.251.239.516S21.476,22.831,21.223,22.831Zm1.448-.014.028-.39.014-.112c.021-.146.035-.258-.063-.258h-.077a1.646,1.646,0,0,1-.021.251l-.063.5h-.141l.028-.39.014-.112c.021-.146.035-.258-.063-.258h-.063l-.105.753h-.169l.134-.99h.126l.021.063a.336.336,0,0,1,.162-.077.112.112,0,0,1,.105.091.348.348,0,0,1,.183-.091c.2,0,.19.258.155.516l-.063.5Zm.661-.767c-.119,0-.162.1-.183.265s-.014.265.105.265.162-.1.183-.265S23.451,22.05,23.331,22.05Zm-.105.781c-.253,0-.274-.251-.239-.516s.126-.516.379-.516.274.251.239.516S23.479,22.831,23.226,22.831Zm.808-.579c.021-.16.014-.188-.035-.188h-.077l-.049.369-.077.383h-.141l.119-.871.014-.132h.134l.014.056a.277.277,0,0,1,.148-.07c.155,0,.148.188.112.446A1.254,1.254,0,0,1,24.034,22.253Zm.555-.216c-.084,0-.126.07-.141.188l.239-.035C24.694,22.113,24.68,22.036,24.589,22.036Zm-.169.376c-.014.125.021.167.119.167h.246l-.028.188a.76.76,0,0,1-.26.07c-.274,0-.281-.251-.246-.516s.1-.516.365-.516.274.251.2.613C24.828,22.413,24.42,22.413,24.42,22.413Zm.548.418c-.063,0-.105-.028-.091-.146s.063-.153.126-.153.105.028.084.153S25.032,22.831,24.968,22.831Z" transform="translate(-1.831 -4.386)" fill="#0868ac"/>
      </g>
    </g>
    <g id="Mask_Group_6" data-name="Mask Group 6" transform="translate(362.743 139.98)" clip-path="url(#clip-path-11)">
      <g id="html5-bg">
        <ellipse id="Ellipse_21" data-name="Ellipse 21" cx="16.041" cy="14.594" rx="16.041" ry="14.594" fill="#ccc"/>
        <path id="Path_37" data-name="Path 37" d="M7.55,8.82l.088.81L9.307,24.348l.056.511L9.988,25l7.58,1.649.241.044.265-.044,7.58-1.627.626-.139.056-.511,1.7-14.733.088-.788H27.08L8.593,8.82Zm2.085,1.489,16.418.022L24.506,23.714l-6.657,1.438-6.689-1.438Zm2.3,2.233.626,5.553h8.181l-.265,2.393-2.623.555h-.032L15.2,20.488l-.152-1.532h-2.39l.329,2.948,4.836,1.043h.032L22.693,21.9l.658-5.648H14.713L14.5,14.373h9.039l.209-1.839H11.937Z" transform="translate(-1.494 -2.384)" fill="#26e07f"/>
      </g>
    </g>
    <g id="Mask_Group_5" data-name="Mask Group 5" transform="matrix(0.985, 0.174, -0.174, 0.985, 670.777, 378)" clip-path="url(#clip-path-12)">
      <g id="bootstrap-bg">
        <circle id="Ellipse_20" data-name="Ellipse 20" cx="20" cy="20" r="20" fill="#e6e6e6"/>
        <path id="Path_35" data-name="Path 35" d="M6.49,30.35a3.5,3.5,0,0,0,3.48,3.51H30.02a3.5,3.5,0,0,0,3.48-3.51V10.15a3.5,3.5,0,0,0-3.48-3.51H9.98A3.5,3.5,0,0,0,6.5,10.15v20.2Z" fill="#563d7c"/>
        <path id="Path_36" data-name="Path 36" d="M17.7,18.68V14.82h3.37a5.645,5.645,0,0,1,.93.08,2.192,2.192,0,0,1,.79.29,1.536,1.536,0,0,1,.55.58,1.909,1.909,0,0,1,.21.95,1.762,1.762,0,0,1-.62,1.5,2.553,2.553,0,0,1-1.58.46Zm-3.6-6.67V28.5h7.93a8.057,8.057,0,0,0,2.14-.28,5.85,5.85,0,0,0,1.86-.85,4.145,4.145,0,0,0,1.29-1.49,4.589,4.589,0,0,0,.48-2.16,4.629,4.629,0,0,0-.74-2.64,3.992,3.992,0,0,0-2.26-1.54,4.07,4.07,0,0,0,1.66-1.36,3.664,3.664,0,0,0,.56-2.08,4.471,4.471,0,0,0-.38-1.94,3.2,3.2,0,0,0-1.07-1.26,4.554,4.554,0,0,0-1.65-.68,9.986,9.986,0,0,0-2.13-.21Zm3.6,13.67V21.15h3.92a3.04,3.04,0,0,1,1.88.54,2.15,2.15,0,0,1,.71,1.81,2.2,2.2,0,0,1-.22,1.06,1.861,1.861,0,0,1-.58.66,2.5,2.5,0,0,1-.85.35,4.741,4.741,0,0,1-1.01.1C21.54,25.68,17.7,25.68,17.7,25.68Z" fill="#fff"/>
      </g>
    </g>
  </g>
</svg>
