<svg xmlns="http://www.w3.org/2000/svg" width="1081" height="567.773" viewBox="0 0 1081 567.773">
  <g id="Group_197" data-name="Group 197" transform="translate(0 -57.491)">
    <path id="Polygon_1" data-name="Polygon 1" d="M22.547,27.28a15,15,0,0,1,26.906,0L61.331,51.366A15,15,0,0,1,47.878,73H24.122A15,15,0,0,1,10.669,51.366Z" transform="translate(43.5 530.5) rotate(-90)" fill="#e6f0fe"/>
    <path id="Polygon_2" data-name="Polygon 2" d="M22.547,27.28a15,15,0,0,1,26.906,0L61.331,51.366A15,15,0,0,1,47.878,73H24.122A15,15,0,0,1,10.669,51.366Z" transform="translate(938.143 57.491) rotate(47)" fill="#f2ffff"/>
    <path id="Polygon_3" data-name="Polygon 3" d="M22.547,27.28a15,15,0,0,1,26.906,0L61.331,51.366A15,15,0,0,1,47.878,73H24.122A15,15,0,0,1,10.669,51.366Z" transform="translate(220.155 485.152) rotate(98)" fill="#e9f6f8"/>
    <path id="Path_374" data-name="Path 374" d="M0-16.576s95.48,64.95,295.9,60.532S620.092-90.006,819.5-92.58s261.5,76,261.5,76V23.571S1015.773-67.3,819.5-52.5,503.593,81.951,295.9,82.787,0,23.571,0,23.571Z" transform="translate(0 542.468)" fill="#f5fdff"/>
    <path id="Polygon_4" data-name="Polygon 4" d="M22.547,27.28a15,15,0,0,1,26.906,0L61.331,51.366A15,15,0,0,1,47.878,73H24.122A15,15,0,0,1,10.669,51.366Z" transform="translate(37.377 151.579) rotate(-43)" fill="#e6f0fe"/>
    <path id="Polygon_5" data-name="Polygon 5" d="M22.547,27.28a15,15,0,0,1,26.906,0L61.331,51.366A15,15,0,0,1,47.878,73H24.122A15,15,0,0,1,10.669,51.366Z" transform="translate(782.334 128.559) rotate(-16)" fill="#e6f0fe"/>
    <path id="Polygon_6" data-name="Polygon 6" d="M22.547,27.28a15,15,0,0,1,26.906,0L61.331,51.366A15,15,0,0,1,47.878,73H24.122A15,15,0,0,1,10.669,51.366Z" transform="translate(210.256 244.851) rotate(146)" fill="#e9f6f8"/>
    <path id="Path_375" data-name="Path 375" d="M0-16.576s95.48,64.95,295.9,60.532S620.092-90.006,819.5-92.58s261.5,76,261.5,76V23.571S1015.773-67.3,819.5-52.5,503.593,81.951,295.9,82.787,0,23.571,0,23.571Z" transform="translate(0 297.61)" fill="#f5fdff"/>
  </g>
</svg>
