<svg xmlns="http://www.w3.org/2000/svg" xmlns:xlink="http://www.w3.org/1999/xlink" width="1411.945" height="792.722" viewBox="0 0 1411.945 792.722">
  <defs>
    <clipPath id="clip-path">
      <rect id="Rectangle_86" data-name="Rectangle 86" width="117" height="115" transform="translate(-0.396)" fill="#fff" stroke="#707070" stroke-width="1"/>
    </clipPath>
    <clipPath id="clip-path-2">
      <rect id="Rectangle_87" data-name="Rectangle 87" width="165" height="147" transform="translate(-0.072)" fill="#fff" stroke="#707070" stroke-width="1"/>
    </clipPath>
    <clipPath id="clip-path-3">
      <rect id="Rectangle_88" data-name="Rectangle 88" width="146" height="119" transform="translate(0.403)" fill="#fff" stroke="#707070" stroke-width="1"/>
    </clipPath>
    <clipPath id="clip-path-4">
      <rect id="Rectangle_89" data-name="Rectangle 89" width="92" height="77" transform="translate(-0.107 -0.03)" fill="#fff" stroke="#707070" stroke-width="1"/>
    </clipPath>
    <clipPath id="clip-path-5">
      <rect id="Rectangle_90" data-name="Rectangle 90" width="91" height="63" transform="translate(0.02)" fill="#fff" stroke="#707070" stroke-width="1"/>
    </clipPath>
    <clipPath id="clip-path-6">
      <rect id="Rectangle_91" data-name="Rectangle 91" width="74" height="68" transform="translate(0.32 0.476)" fill="#fff" stroke="#707070" stroke-width="1" opacity="0.67"/>
    </clipPath>
    <clipPath id="clip-path-7">
      <rect id="Rectangle_92" data-name="Rectangle 92" width="116" height="133" transform="translate(-29.572 52.84) rotate(-40)" fill="#fff" stroke="#707070" stroke-width="1"/>
    </clipPath>
    <clipPath id="clip-path-8">
      <rect id="Rectangle_94" data-name="Rectangle 94" width="109" height="115" transform="translate(53.784 -21.722) rotate(43)" fill="#fff" stroke="#707070" stroke-width="1"/>
    </clipPath>
    <clipPath id="clip-path-9">
      <rect id="Rectangle_95" data-name="Rectangle 95" width="88" height="76" transform="translate(0.124 0.223)" fill="#fff" stroke="#707070" stroke-width="1"/>
    </clipPath>
    <clipPath id="clip-path-10">
      <rect id="Rectangle_96" data-name="Rectangle 96" width="92" height="77" transform="translate(43.724 -21.476) rotate(48)" fill="#fff" stroke="#707070" stroke-width="1"/>
    </clipPath>
  </defs>
  <g id="Group_197" data-name="Group 197" transform="translate(-43.824 -2.278)">
    <g id="Mask_Group_38" data-name="Mask Group 38" transform="translate(274.396 9)" opacity="0.54" clip-path="url(#clip-path)">
      <g id="angular-icon-1" transform="translate(1.754 0)">
        <path id="Path_349" data-name="Path 349" d="M.073,19.5,55.88.51l57.31,18.653-9.279,70.52L55.88,115.089,8.6,90.021Z" transform="translate(-0.073 -0.51)" fill="#e23237"/>
        <path id="Path_350" data-name="Path 350" d="M149.491,19.164,92.181.51V115.089l48.03-25.363,9.279-70.562Z" transform="translate(-36.374 -0.51)" fill="#b52e31"/>
        <path id="Path_351" data-name="Path 351" d="M69.707,23.629l-34.774,73.9,12.99-.211L54.9,80.644H86.1l7.644,16.881,12.416.211L69.707,23.629ZM69.8,47.3,81.549,70.768H59.456L69.8,47.3Z" transform="translate(-13.812 -10.251)" fill="#fff"/>
      </g>
    </g>
    <g id="Mask_Group_39" data-name="Mask Group 39" transform="translate(51.212 213.398) rotate(-50)" opacity="0.53" clip-path="url(#clip-path-2)">
      <path id="sass-1" d="M142.1,74.106a32.92,32.92,0,0,0-14.966,3.628c-1.548-3.191-3.1-5.979-3.354-8.061a23.2,23.2,0,0,1-.29-6.785c.354-2.889,1.967-6.987,1.967-7.322-.033-.3-.355-1.78-3.677-1.814s-6.193.672-6.515,1.579a39.815,39.815,0,0,0-1.387,5.139c-.581,3.157-6.644,14.342-10.1,20.22a21.134,21.134,0,0,1-2.29-5.912,23.2,23.2,0,0,1-.29-6.784c.355-2.889,1.968-6.986,1.968-7.322-.032-.3-.355-1.78-3.677-1.814s-6.193.672-6.515,1.579-.677,3.056-1.387,5.139c-.678,2.082-8.741,20.757-10.838,25.627-1.064,2.485-2,4.467-2.677,5.811s-.032.1-.1.235c-.581,1.142-.9,1.78-.9,1.78v.034c-.452.84-.935,1.645-1.161,1.645-.161,0-.484-2.25.064-5.34,1.193-6.483,4.1-16.592,4.064-16.962,0-.168.548-1.948-1.871-2.855a2.865,2.865,0,0,0-3.387.6c-.194,0-.355.537-.355.537s2.613-11.386-5-11.386c-4.774,0-11.353,5.408-14.611,10.345-2.064,1.176-6.451,3.661-11.1,6.314-1.774,1.008-3.612,2.082-5.354,3.056l-.354-.4c-9.225-10.244-26.287-17.5-25.578-31.27.258-5,1.935-18.2,32.77-34.192,25.255-13.1,45.478-9.505,48.994-1.511,5,11.42-10.805,32.647-37.06,35.7-10,1.176-15.257-2.855-16.579-4.366-1.387-1.579-1.58-1.646-2.1-1.344-.839.47-.323,1.881,0,2.721.774,2.116,4,5.878,9.483,7.759,4.806,1.646,16.546,2.553,30.738-3.157,15.9-6.415,28.319-24.217,24.674-39.1C99.659.717,75.532-4.254,52.729,4.176c-13.579,5.038-28.287,12.9-38.866,23.209C1.283,39.611-.717,50.292.122,54.725,3.057,70.545,23.99,80.857,32.376,88.481c-.419.235-.806.47-1.161.672C27.022,91.3,11.056,100,7.057,109.2c-4.516,10.412.71,17.9,4.193,18.91,10.773,3.124,21.8-2.485,27.771-11.722,5.934-9.237,5.225-21.227,2.484-26.7l-.1-.2,3.29-2.015c2.129-1.31,4.226-2.519,6.064-3.561A43.332,43.332,0,0,0,48.6,95.333c-.452,5.912,1.871,13.569,4.935,16.592a5.315,5.315,0,0,0,3.967,1.344c3.548,0,5.161-3.057,6.935-6.718,2.193-4.467,4.129-9.64,4.129-9.64s-2.419,14.006,4.193,14.006c2.419,0,4.838-3.258,5.935-4.937v.034s.064-.1.194-.336q.2-.313.387-.638v-.067c.968-1.747,3.129-5.743,6.354-12.36,4.16-8.531,8.16-19.212,8.16-19.212a63.465,63.465,0,0,0,1.58,6.919c.709,2.553,2.257,5.34,3.451,8.061-.968,1.411-1.548,2.217-1.548,2.217l.032.034c-.774,1.075-1.645,2.217-2.548,3.359-3.29,4.1-7.225,8.767-7.741,10.11-.613,1.578-.484,2.754.71,3.695a6.235,6.235,0,0,0,4.064.672,17.517,17.517,0,0,0,6.064-1.445,20.719,20.719,0,0,0,5.225-2.855,12.289,12.289,0,0,0,5-10.714,22.253,22.253,0,0,0-1.9-7.557c.29-.437.581-.874.871-1.344a143.469,143.469,0,0,0,9.031-16.29,63.47,63.47,0,0,0,1.58,6.919,49.553,49.553,0,0,0,2.935,6.919c-4.774,4.064-7.773,8.766-8.805,11.856-1.9,5.71-.419,8.3,2.387,8.9a8.3,8.3,0,0,0,4.418-.94,19.738,19.738,0,0,0,5.58-2.989c3.225-2.485,6.322-5.945,6.161-10.614a21.054,21.054,0,0,0-1.387-6.281,30.275,30.275,0,0,1,16-1.914C159.3,81.865,162.134,91.2,161.586,95.1a10,10,0,0,1-4.548,6.718c-1,.638-1.322.874-1.226,1.344.129.706.581.672,1.451.538a11.491,11.491,0,0,0,7.805-10.378c.387-9.238-8.031-19.314-22.965-19.214Zm-110.7,38.861c-4.741,5.408-11.418,7.456-14.256,5.71-3.064-1.847-1.871-9.808,3.967-15.551a76.188,76.188,0,0,1,11.192-8.7c.677-.437,1.709-1.074,2.935-1.847a3.412,3.412,0,0,1,.323-.2c.226-.134.484-.3.742-.47a22.055,22.055,0,0,1-4.9,21.059ZM66.082,88.414c-1.645,4.2-5.128,14.98-7.225,14.375-1.807-.5-2.9-8.666-.355-16.727a37.816,37.816,0,0,1,5.644-10.782c2.613-3.023,5.451-4.031,6.161-2.788C71.146,74.105,67.114,85.794,66.082,88.414Zm28.609,14.241c-.71.37-1.355.638-1.645.437-.226-.134.29-.638.29-.638s3.58-4,5-5.844c.806-1.074,1.774-2.317,2.806-3.728v.4c0,4.836-4.451,8.061-6.45,9.371Zm22.061-5.24c-.516-.4-.451-1.646,1.29-5.542a20.708,20.708,0,0,1,4.9-6.583,8.618,8.618,0,0,1,.484,2.889C123.4,94.224,119.269,96.475,116.753,97.415Z" transform="translate(0.033 9.156)" fill="#cf649a"/>
    </g>
    <g id="Mask_Group_44" data-name="Mask Group 44" transform="translate(1165.597 24)" clip-path="url(#clip-path-3)">
      <g id="react-2" transform="translate(6.187 0)">
        <path id="Path_357" data-name="Path 357" d="M181.482,80.759c0-8.852-11.086-17.241-28.082-22.444,3.922-17.323,2.179-31.105-5.5-35.518a11.942,11.942,0,0,0-6.1-1.525v6.074a6.307,6.307,0,0,1,3.105.708c3.7,2.125,5.311,10.214,4.058,20.619-.3,2.56-.79,5.257-1.389,8.008a132,132,0,0,0-17.3-2.969,132.865,132.865,0,0,0-11.331-13.619c8.879-8.253,17.214-12.774,22.879-12.774V21.245c-7.49,0-17.3,5.339-27.21,14.6-9.914-9.206-19.72-14.49-27.21-14.49v6.074c5.638,0,14,4.494,22.879,12.693A128.646,128.646,0,0,0,99.035,53.712a127.192,127.192,0,0,0-17.323,3c-.626-2.724-1.089-5.366-1.416-7.9-1.28-10.4.3-18.494,3.977-20.646a6.062,6.062,0,0,1,3.132-.708V21.381a12.145,12.145,0,0,0-6.156,1.525c-7.654,4.412-9.37,18.167-5.42,35.436-16.942,5.23-27.973,13.591-27.973,22.416,0,8.852,11.086,17.241,28.082,22.444-3.922,17.323-2.179,31.105,5.5,35.518a11.973,11.973,0,0,0,6.128,1.525c7.49,0,17.3-5.339,27.21-14.6,9.914,9.206,19.72,14.49,27.21,14.49a12.145,12.145,0,0,0,6.156-1.525c7.654-4.412,9.37-18.167,5.42-35.436,16.887-5.2,27.918-13.591,27.918-22.416ZM146.019,62.591c-1.008,3.514-2.261,7.136-3.677,10.759-1.117-2.179-2.288-4.358-3.568-6.537-1.253-2.179-2.588-4.3-3.922-6.374,3.868.572,7.6,1.28,11.167,2.152ZM133.545,91.6c-2.125,3.677-4.3,7.163-6.564,10.4-4.058.354-8.171.545-12.311.545-4.113,0-8.226-.191-12.257-.518q-3.391-4.862-6.591-10.35-3.105-5.352-5.665-10.84c1.689-3.65,3.6-7.3,5.638-10.868,2.125-3.677,4.3-7.163,6.564-10.4,4.058-.354,8.171-.545,12.311-.545,4.113,0,8.226.191,12.257.518q3.391,4.862,6.591,10.35,3.105,5.352,5.665,10.84c-1.716,3.65-3.6,7.3-5.638,10.868Zm8.8-3.541c1.471,3.65,2.724,7.3,3.759,10.84-3.568.872-7.327,1.607-11.222,2.179,1.335-2.1,2.669-4.249,3.922-6.455,1.253-2.179,2.424-4.385,3.541-6.564Zm-27.619,29.062a112.289,112.289,0,0,1-7.572-8.716c2.451.109,4.957.191,7.49.191,2.56,0,5.093-.054,7.572-.191A106.315,106.315,0,0,1,114.724,117.121ZM94.459,101.078c-3.868-.572-7.6-1.28-11.167-2.152,1.008-3.514,2.261-7.136,3.677-10.759,1.117,2.179,2.288,4.358,3.568,6.537S93.125,99.008,94.459,101.078ZM114.588,44.4a112.289,112.289,0,0,1,7.572,8.716c-2.451-.109-4.957-.191-7.49-.191-2.56,0-5.093.054-7.572.191A106.316,106.316,0,0,1,114.588,44.4ZM94.432,60.44c-1.335,2.1-2.669,4.249-3.922,6.455-1.253,2.179-2.424,4.358-3.541,6.537-1.471-3.65-2.724-7.3-3.759-10.84,3.568-.844,7.327-1.58,11.222-2.152Zm-24.65,34.1C60.14,90.428,53.9,85.035,53.9,80.759s6.237-9.7,15.879-13.782c2.342-1.008,4.9-1.907,7.545-2.751a130.819,130.819,0,0,0,6.128,16.588,128.972,128.972,0,0,0-6.047,16.506c-2.7-.844-5.257-1.77-7.626-2.778Zm14.654,38.922c-3.7-2.124-5.311-10.214-4.058-20.619.3-2.56.79-5.257,1.389-8.008a132,132,0,0,0,17.3,2.969,132.865,132.865,0,0,0,11.331,13.619c-8.879,8.253-17.214,12.774-22.879,12.774a6.5,6.5,0,0,1-3.078-.735Zm64.607-20.755c1.28,10.4-.3,18.494-3.977,20.646a6.062,6.062,0,0,1-3.132.708c-5.638,0-14-4.494-22.879-12.693A128.646,128.646,0,0,0,130.3,107.778a127.192,127.192,0,0,0,17.323-3A76.25,76.25,0,0,1,149.043,112.708Zm10.486-18.167c-2.342,1.008-4.9,1.907-7.545,2.751A130.814,130.814,0,0,0,145.856,80.7,128.975,128.975,0,0,0,151.9,64.2c2.7.844,5.257,1.77,7.654,2.778,9.642,4.113,15.879,9.506,15.879,13.782-.027,4.276-6.265,9.7-15.907,13.782Z" transform="translate(-47.856 -21.245)" fill="#61dafb"/>
        <circle id="Ellipse_108" data-name="Ellipse 108" cx="12.447" cy="12.447" r="12.447" transform="translate(54.339 47.066)" fill="#61dafb"/>
      </g>
    </g>
    <g id="Mask_Group_41" data-name="Mask Group 41" transform="matrix(0.438, 0.899, -0.899, 0.438, 1415.458, 438.387)" opacity="0.6" clip-path="url(#clip-path-4)">
      <g id="bootstrap-4" transform="translate(8.834)">
        <path id="Path_353" data-name="Path 353" d="M0,67.045A9.759,9.759,0,0,0,9.584,76.97h55.16a9.759,9.759,0,0,0,9.584-9.925V9.925A9.759,9.759,0,0,0,64.744,0H9.584A9.759,9.759,0,0,0,0,9.925v57.12Z" fill="#563d7c"/>
        <path id="Path_354" data-name="Path 354" d="M56.632,51.609v-10.9H65.9a13.93,13.93,0,0,1,2.553.229,6.234,6.234,0,0,1,2.175.816,4.288,4.288,0,0,1,1.513,1.632,5.578,5.578,0,0,1,.567,2.676A5.011,5.011,0,0,1,71,50.3a6.94,6.94,0,0,1-4.349,1.305H56.632Zm-9.9-18.863v46.6H68.545a22.265,22.265,0,0,0,5.893-.783,15.514,15.514,0,0,0,5.105-2.415,11.779,11.779,0,0,0,3.561-4.21,13.2,13.2,0,0,0,1.324-6.1,13.251,13.251,0,0,0-2.048-7.473,10.817,10.817,0,0,0-6.209-4.341,11.311,11.311,0,0,0,4.57-3.851A10.481,10.481,0,0,0,82.285,44.3a12.883,12.883,0,0,0-1.04-5.483,8.879,8.879,0,0,0-2.931-3.557,12.415,12.415,0,0,0-4.538-1.925,27.089,27.089,0,0,0-5.862-.587Zm9.9,38.64V58.593H67.41a8.135,8.135,0,0,1,5.169,1.534q1.954,1.534,1.954,5.124a6.6,6.6,0,0,1-.6,3,4.871,4.871,0,0,1-1.607,1.86,6.678,6.678,0,0,1-2.332.979,12.8,12.8,0,0,1-2.773.293Z" transform="translate(-25.809 -17.563)" fill="#fff"/>
      </g>
    </g>
    <g id="Mask_Group_43" data-name="Mask Group 43" transform="translate(370.98 566)" opacity="0.6" clip-path="url(#clip-path-5)">
      <g id="logo-javascript" transform="translate(4.155)">
        <path id="Path_355" data-name="Path 355" d="M0,0H83.531V62.659H0Z" fill="#f0db4f"/>
        <path id="Path_356" data-name="Path 356" d="M91.8,83.254c-.611-2.859-3.1-5.259-10.457-7.5-2.557-.882-5.407-1.513-6.257-2.966a2.472,2.472,0,0,1-.151-1.834c.548-1.662,3.192-2.18,5.288-1.7a5.52,5.52,0,0,1,3.4,2.365c3.6-1.751,3.6-1.739,6.114-2.942a12.746,12.746,0,0,0-2.017-2.025c-2.168-1.817-5.121-2.752-9.846-2.68-.818.077-1.644.161-2.461.238a12.307,12.307,0,0,0-5.923,2.621c-3.954,3.365-2.827,9.256,1.985,11.68,4.74,2.668,11.7,3.276,12.593,5.772.865,3.055-2.993,4.044-6.829,3.693a9.1,9.1,0,0,1-6.1-3.478c-3.128,1.358-3.128,1.358-6.344,2.746a11.4,11.4,0,0,0,2.843,2.9c6.05,4.6,21.192,4.378,23.908-2.591A6.579,6.579,0,0,0,91.8,83.254ZM60.515,64.337H52.7c0,5.063-.032,10.09-.032,15.152,0,3.222.222,6.177-.476,7.082-1.143,1.781-4.105,1.561-5.455,1.215a6.066,6.066,0,0,1-2.882-2.245,3.071,3.071,0,0,0-.445-.536c-2.12.971-4.232,1.948-6.352,2.919a10.9,10.9,0,0,0,4.605,3.955,19.691,19.691,0,0,0,11.164,1.03c2.723-.6,5.074-1.828,6.3-3.7,1.779-2.46,1.4-5.438,1.382-8.732.04-5.372,0-10.745,0-16.135Z" transform="translate(-15.105 -35.539)" fill="#323330"/>
      </g>
    </g>
    <g id="Mask_Group_42" data-name="Mask Group 42" transform="translate(1237.68 726.524)" opacity="0.45" clip-path="url(#clip-path-6)">
      <path id="icons8-google-code" d="M30.227,30.227V86.253H52.012v3.113h-13.1L30.227,98.7H90.134l-8.68-9.338H68.35V86.253H90.134V30.227Zm5.446,6.225H84.688V80.028H35.673Zm17.1,7.1L41.885,56,40.013,58.24l1.872,2.237,10.892,12.45,3.914-4.474L47.757,58.24l8.935-10.213Zm14.806,0L63.67,48.027,72.6,58.24,63.67,68.454l3.914,4.474,10.892-12.45,1.872-2.237L78.476,56Z" transform="translate(-23.02 -30.227)" fill="#26e07f"/>
    </g>
    <g id="Mask_Group_40" data-name="Mask Group 40" transform="translate(73.396 606)" opacity="0.5" clip-path="url(#clip-path-7)">
      <g id="react-2-2" data-name="react-2" transform="translate(-0.033 18.236)">
        <path id="Path_352" data-name="Path 352" d="M161.746,68.276c0-7.152-9.645-13.93-24.433-18.134,3.413-14,1.9-25.132-4.787-28.7a11.026,11.026,0,0,0-5.308-1.232v4.907a5.834,5.834,0,0,1,2.7.572c3.223,1.717,4.621,8.253,3.531,16.659a63.356,63.356,0,0,1-1.209,6.47,122.921,122.921,0,0,0-15.048-2.4,109.628,109.628,0,0,0-9.858-11c7.726-6.668,14.977-10.321,19.907-10.321V20.192c-6.517,0-15.048,4.313-23.675,11.8C94.941,24.549,86.41,20.28,79.893,20.28v4.907c4.906,0,12.181,3.631,19.907,10.255a106.086,106.086,0,0,0-9.787,10.981A118.434,118.434,0,0,0,74.94,48.844a62.116,62.116,0,0,1-1.232-6.382c-1.114-8.407.261-14.943,3.46-16.681a5.607,5.607,0,0,1,2.725-.572V20.3a11.216,11.216,0,0,0-5.356,1.232c-6.659,3.565-8.152,14.678-4.716,28.631C55.081,54.39,45.483,61.146,45.483,68.276c0,7.152,9.645,13.93,24.433,18.134-3.413,14-1.9,25.132,4.787,28.7a11.056,11.056,0,0,0,5.332,1.232c6.517,0,15.048-4.313,23.675-11.8,8.626,7.438,17.158,11.708,23.675,11.708a11.216,11.216,0,0,0,5.356-1.232c6.659-3.565,8.152-14.678,4.716-28.631,14.693-4.2,24.291-10.981,24.291-18.112ZM130.891,53.6c-.877,2.839-1.967,5.766-3.2,8.693-.972-1.761-1.991-3.521-3.1-5.282-1.09-1.761-2.251-3.477-3.413-5.15,3.365.462,6.612,1.034,9.716,1.739ZM120.038,77.035c-1.848,2.971-3.744,5.788-5.711,8.407-3.531.286-7.109.44-10.712.44-3.578,0-7.157-.154-10.664-.418-1.967-2.619-3.887-5.414-5.735-8.363-1.8-2.883-3.436-5.81-4.929-8.759,1.469-2.949,3.128-5.9,4.906-8.781,1.848-2.971,3.744-5.788,5.711-8.407,3.531-.286,7.109-.44,10.712-.44,3.578,0,7.157.154,10.664.418,1.967,2.619,3.887,5.414,5.735,8.363,1.8,2.883,3.436,5.81,4.929,8.759-1.493,2.949-3.128,5.9-4.906,8.781Zm7.655-2.861a89.84,89.84,0,0,1,3.27,8.759c-3.1.7-6.375,1.3-9.764,1.761,1.161-1.695,2.322-3.433,3.413-5.216,1.09-1.761,2.109-3.543,3.081-5.3Zm-24.03,23.481a93.084,93.084,0,0,1-6.588-7.042c2.133.088,4.313.154,6.517.154,2.228,0,4.432-.044,6.588-.154A88.024,88.024,0,0,1,103.662,97.655ZM86.031,84.693c-3.365-.462-6.612-1.034-9.716-1.739.877-2.839,1.967-5.766,3.2-8.693.972,1.761,1.991,3.521,3.1,5.282S84.869,83.021,86.031,84.693Zm17.513-45.8a93.085,93.085,0,0,1,6.588,7.042c-2.133-.088-4.313-.154-6.517-.154-2.228,0-4.432.044-6.588.154A88.027,88.027,0,0,1,103.544,38.9ZM86.007,51.859c-1.161,1.695-2.322,3.433-3.413,5.216-1.09,1.761-2.109,3.521-3.081,5.282a89.843,89.843,0,0,1-3.27-8.759C79.348,52.916,82.618,52.321,86.007,51.859ZM64.56,79.412c-8.389-3.323-13.816-7.68-13.816-11.135s5.427-7.834,13.816-11.135c2.038-.814,4.266-1.54,6.564-2.223a100.99,100.99,0,0,0,5.332,13.4A99.525,99.525,0,0,0,71.2,81.656c-2.346-.682-4.574-1.43-6.636-2.245Zm12.75,31.448c-3.223-1.717-4.621-8.253-3.531-16.659a63.356,63.356,0,0,1,1.209-6.47,122.923,122.923,0,0,0,15.048,2.4,109.626,109.626,0,0,0,9.858,11c-7.726,6.668-14.977,10.321-19.907,10.321a6.008,6.008,0,0,1-2.678-.594ZM133.522,94.09c1.114,8.407-.261,14.943-3.46,16.681a5.607,5.607,0,0,1-2.725.572c-4.906,0-12.181-3.631-19.907-10.255a106.084,106.084,0,0,0,9.787-10.981,118.432,118.432,0,0,0,15.072-2.421A57.641,57.641,0,0,1,133.522,94.09Zm9.124-14.678c-2.038.814-4.266,1.54-6.564,2.223a100.988,100.988,0,0,0-5.332-13.4A99.526,99.526,0,0,0,136.01,54.9c2.346.682,4.574,1.43,6.659,2.245,8.389,3.323,13.816,7.68,13.816,11.135-.024,3.455-5.451,7.834-13.84,11.135Z" transform="translate(-45.483 -20.192)" fill="#61dafb"/>
        <ellipse id="Ellipse_107" data-name="Ellipse 107" cx="10.83" cy="10.057" rx="10.83" ry="10.057" transform="translate(47.278 38.028)" fill="#61dafb"/>
      </g>
    </g>
    <g id="Mask_Group_46" data-name="Mask Group 46" transform="translate(673.072 24)" opacity="0.53" clip-path="url(#clip-path-8)">
      <path id="sass-1-2" data-name="sass-1" d="M93.514,57.9a18.99,18.99,0,0,0-9.85,2.834c-1.019-2.492-2.038-4.67-2.208-6.3a21.453,21.453,0,0,1-.191-5.3,50.415,50.415,0,0,1,1.295-5.719c-.021-.236-.234-1.39-2.42-1.417s-4.076.525-4.288,1.233a35.783,35.783,0,0,0-.913,4.014c-.382,2.466-4.373,11.2-6.645,15.793a18.5,18.5,0,0,1-1.507-4.618,21.451,21.451,0,0,1-.191-5.3,50.44,50.44,0,0,1,1.295-5.719c-.021-.236-.234-1.39-2.42-1.417s-4.076.525-4.288,1.233-.446,2.387-.913,4.014c-.446,1.627-5.753,16.213-7.133,20.017-.7,1.941-1.316,3.489-1.762,4.539s-.021.079-.064.184c-.382.892-.594,1.39-.594,1.39V77.4c-.3.656-.616,1.285-.764,1.285A10.752,10.752,0,0,1,50,74.51c.785-5.064,2.7-12.96,2.675-13.249a1.936,1.936,0,0,0-1.231-2.23,1.708,1.708,0,0,0-2.229.472c-.127,0-.234.42-.234.42s1.72-8.893-3.29-8.893c-3.142,0-7.473,4.224-9.617,8.08-1.359.918-4.246,2.859-7.3,4.932-1.168.787-2.378,1.627-3.524,2.387l-.233-.315c-6.071-8-17.3-13.668-16.834-24.425.17-3.909,1.274-14.219,21.569-26.707C46.365,4.751,59.676,7.558,61.99,13.8c3.29,8.92-7.112,25.5-24.392,27.888-6.581.918-10.041-2.23-10.912-3.411-.913-1.233-1.04-1.286-1.38-1.049-.552.367-.212,1.469,0,2.125a11.11,11.11,0,0,0,6.241,6.06c3.163,1.286,10.89,1.994,20.231-2.466,10.466-5.011,18.639-18.915,16.24-30.537C65.578.58,49.7-3.3,34.69,3.282,25.752,7.217,16.072,13.356,9.109,21.41.829,30.96-.487,39.3.065,42.766,2,55.122,15.775,63.176,21.294,69.132c-.276.183-.531.367-.764.525-2.76,1.679-13.268,8.474-15.9,15.662C1.657,93.451,5.1,99.3,7.389,100.089c7.09,2.44,14.351-1.941,18.278-9.156,3.906-7.215,3.439-16.58,1.635-20.857l-.064-.157L29.4,68.345c1.4-1.023,2.781-1.968,3.991-2.781a39.478,39.478,0,0,0-1.422,8.92c-.3,4.618,1.231,10.6,3.248,12.96a3.154,3.154,0,0,0,2.611,1.049c2.335,0,3.4-2.388,4.564-5.247,1.444-3.489,2.717-7.529,2.717-7.529s-1.592,10.94,2.76,10.94c1.592,0,3.184-2.545,3.906-3.857v.026s.042-.079.127-.262q.134-.244.255-.5v-.052c.637-1.364,2.059-4.486,4.182-9.654,2.738-6.664,5.371-15.006,5.371-15.006s.255,2.046,1.04,5.4a58.5,58.5,0,0,0,2.271,6.3c-.637,1.1-1.019,1.732-1.019,1.732l.021.026c-.509.84-1.083,1.732-1.677,2.623-2.165,3.2-4.755,6.848-5.095,7.9a2.5,2.5,0,0,0,.467,2.886,3.56,3.56,0,0,0,2.675.525,10.1,10.1,0,0,0,3.991-1.128,13.138,13.138,0,0,0,3.439-2.23,10.354,10.354,0,0,0,3.29-8.369,20.054,20.054,0,0,0-1.253-5.9c.191-.341.382-.682.573-1.049a119.979,119.979,0,0,0,5.944-12.724s.255,2.046,1.04,5.4a42.919,42.919,0,0,0,1.932,5.4,23.529,23.529,0,0,0-5.8,9.261c-1.253,4.46-.276,6.48,1.571,6.952a4.751,4.751,0,0,0,2.908-.735,12.467,12.467,0,0,0,3.673-2.335c2.123-1.941,4.161-4.644,4.055-8.29a19.093,19.093,0,0,0-.913-4.906,17.078,17.078,0,0,1,10.53-1.5c9.447,1.364,11.315,8.658,10.954,11.7a7.876,7.876,0,0,1-2.993,5.247c-.658.5-.87.682-.807,1.049.085.551.382.525.955.42.785-.158,4.968-2.492,5.137-8.106A14.575,14.575,0,0,0,93.514,57.9ZM20.657,88.257c-3.121,4.224-7.515,5.824-9.383,4.46-2.017-1.443-1.231-7.661,2.611-12.147a52.312,52.312,0,0,1,7.366-6.795c.446-.341,1.125-.839,1.932-1.443a2.217,2.217,0,0,1,.212-.157c.149-.1.318-.236.488-.367a19.623,19.623,0,0,1-3.227,16.449ZM43.478,69.079C42.4,72.359,40.1,80.78,38.723,80.308c-1.189-.394-1.911-6.769-.234-13.065A31.712,31.712,0,0,1,42.2,58.821c1.72-2.361,3.588-3.148,4.055-2.177C46.811,57.9,44.157,67.033,43.478,69.079ZM62.308,80.2c-.467.289-.892.5-1.083.341-.149-.1.191-.5.191-.5s2.356-3.122,3.29-4.565c.531-.839,1.168-1.81,1.847-2.912v.315c0,3.778-2.929,6.3-4.246,7.319Zm14.52-4.093c-.34-.315-.3-1.286.849-4.329A16.358,16.358,0,0,1,80.9,66.639a7.88,7.88,0,0,1,.318,2.256C81.2,73.618,78.484,75.376,76.828,76.11Z" transform="translate(0.012 7.132)" fill="#cf649a"/>
    </g>
    <g id="Mask_Group_47" data-name="Mask Group 47" transform="translate(273.875 291.777)" opacity="0.47" clip-path="url(#clip-path-9)">
      <g id="react-2-3" data-name="react-2" transform="translate(3.878 0)">
        <path id="Path_360" data-name="Path 360" d="M128.143,59.365c0-5.67-6.661-11.044-16.872-14.376,2.357-11.1,1.309-19.924-3.306-22.75a6.827,6.827,0,0,0-3.666-.977v3.891a3.6,3.6,0,0,1,1.866.454c2.226,1.361,3.191,6.542,2.438,13.207-.18,1.64-.475,3.367-.835,5.129a74.844,74.844,0,0,0-10.392-1.9,84.11,84.11,0,0,0-6.808-8.723c5.335-5.286,10.343-8.182,13.747-8.182V21.245c-4.5,0-10.392,3.419-16.349,9.351-5.957-5.9-11.848-9.281-16.349-9.281v3.891c3.388,0,8.412,2.879,13.747,8.13a81.477,81.477,0,0,0-6.759,8.706A72.126,72.126,0,0,0,68.2,43.96c-.376-1.745-.655-3.437-.851-5.059-.769-6.665.18-11.846,2.389-13.224a3.46,3.46,0,0,1,1.882-.454V21.332a6.942,6.942,0,0,0-3.7.977c-4.6,2.826-5.63,11.637-3.257,22.7-10.179,3.35-16.807,8.706-16.807,14.358,0,5.67,6.661,11.044,16.872,14.376-2.357,11.1-1.309,19.924,3.306,22.75a6.845,6.845,0,0,0,3.682.977c4.5,0,10.392-3.419,16.349-9.351,5.957,5.9,11.848,9.281,16.349,9.281a6.942,6.942,0,0,0,3.7-.977c4.6-2.826,5.63-11.637,3.257-22.7,10.146-3.332,16.774-8.706,16.774-14.358ZM106.836,47.729c-.606,2.251-1.358,4.571-2.209,6.891-.671-1.4-1.375-2.791-2.144-4.187-.753-1.4-1.555-2.757-2.357-4.082,2.324.366,4.566.82,6.71,1.378Zm-7.5,18.58c-1.276,2.355-2.586,4.588-3.944,6.665-2.438.227-4.91.349-7.4.349-2.471,0-4.942-.122-7.364-.331q-2.037-3.114-3.96-6.63c-1.244-2.285-2.373-4.606-3.4-6.944,1.015-2.338,2.16-4.676,3.388-6.961,1.276-2.355,2.586-4.588,3.944-6.665,2.438-.227,4.91-.349,7.4-.349,2.471,0,4.942.122,7.364.331q2.037,3.114,3.96,6.63c1.244,2.285,2.373,4.606,3.4,6.944-1.031,2.338-2.16,4.676-3.388,6.961Zm5.286-2.268c.884,2.338,1.637,4.676,2.258,6.944-2.144.558-4.4,1.029-6.742,1.4.8-1.343,1.6-2.722,2.357-4.135C103.252,66.85,103.956,65.437,104.627,64.041ZM88.032,82.656a70.8,70.8,0,0,1-4.55-5.583c1.473.07,2.978.122,4.5.122,1.538,0,3.06-.035,4.55-.122A67.1,67.1,0,0,1,88.032,82.656ZM75.857,72.38c-2.324-.366-4.566-.82-6.71-1.378.606-2.251,1.358-4.571,2.209-6.891.671,1.4,1.375,2.791,2.144,4.187S75.055,71.054,75.857,72.38ZM87.951,36.075a70.8,70.8,0,0,1,4.55,5.583c-1.473-.07-2.978-.122-4.5-.122-1.538,0-3.06.035-4.55.122A67.1,67.1,0,0,1,87.951,36.075ZM75.84,46.35c-.8,1.343-1.6,2.722-2.357,4.135-.753,1.4-1.456,2.791-2.127,4.187C70.473,52.335,69.72,50,69.1,47.729c2.144-.541,4.4-1.012,6.742-1.378ZM61.03,68.193c-5.793-2.634-9.541-6.089-9.541-8.828s3.748-6.211,9.541-8.828a48.449,48.449,0,0,1,4.533-1.762A87.4,87.4,0,0,0,69.245,59.4a86.194,86.194,0,0,0-3.633,10.572,47.763,47.763,0,0,1-4.582-1.78Zm8.8,24.931c-2.226-1.361-3.191-6.542-2.438-13.207.18-1.64.475-3.367.835-5.129a74.843,74.843,0,0,0,10.392,1.9,84.111,84.111,0,0,0,6.808,8.723C80.1,90.7,75.088,93.6,71.684,93.6a3.713,3.713,0,0,1-1.849-.471ZM108.653,79.83c.769,6.665-.18,11.846-2.389,13.224a3.46,3.46,0,0,1-1.882.454c-3.388,0-8.412-2.879-13.747-8.13a81.478,81.478,0,0,0,6.759-8.706A72.126,72.126,0,0,0,107.8,74.753C108.178,76.515,108.473,78.208,108.653,79.83Zm6.3-11.637a48.448,48.448,0,0,1-4.533,1.762,87.4,87.4,0,0,0-3.682-10.625,86.2,86.2,0,0,0,3.633-10.573c1.62.541,3.158,1.134,4.6,1.78,5.793,2.634,9.541,6.089,9.541,8.828-.016,2.739-3.764,6.211-9.557,8.828Z" transform="translate(-47.856 -21.245)" fill="#61dafb"/>
        <ellipse id="Ellipse_109" data-name="Ellipse 109" cx="7.479" cy="7.973" rx="7.479" ry="7.973" transform="translate(32.648 30.147)" fill="#61dafb"/>
      </g>
    </g>
    <g id="Mask_Group_48" data-name="Mask Group 48" transform="translate(1003.107 67.03)" opacity="0.6" clip-path="url(#clip-path-10)">
      <g id="bootstrap-4-2" data-name="bootstrap-4" transform="translate(8.834)">
        <path id="Path_361" data-name="Path 361" d="M0,67.045A9.759,9.759,0,0,0,9.584,76.97h55.16a9.759,9.759,0,0,0,9.584-9.925V9.925A9.759,9.759,0,0,0,64.744,0H9.584A9.759,9.759,0,0,0,0,9.925v57.12Z" fill="#563d7c"/>
        <path id="Path_362" data-name="Path 362" d="M56.632,51.609v-10.9H65.9a13.93,13.93,0,0,1,2.553.229,6.234,6.234,0,0,1,2.175.816,4.288,4.288,0,0,1,1.513,1.632,5.578,5.578,0,0,1,.567,2.676A5.011,5.011,0,0,1,71,50.3a6.94,6.94,0,0,1-4.349,1.305H56.632Zm-9.9-18.863v46.6H68.545a22.265,22.265,0,0,0,5.893-.783,15.514,15.514,0,0,0,5.105-2.415,11.779,11.779,0,0,0,3.561-4.21,13.2,13.2,0,0,0,1.324-6.1,13.251,13.251,0,0,0-2.048-7.473,10.817,10.817,0,0,0-6.209-4.341,11.311,11.311,0,0,0,4.57-3.851A10.481,10.481,0,0,0,82.285,44.3a12.883,12.883,0,0,0-1.04-5.483,8.879,8.879,0,0,0-2.931-3.557,12.415,12.415,0,0,0-4.538-1.925,27.089,27.089,0,0,0-5.862-.587Zm9.9,38.64V58.593H67.41a8.135,8.135,0,0,1,5.169,1.534q1.954,1.534,1.954,5.124a6.6,6.6,0,0,1-.6,3,4.871,4.871,0,0,1-1.607,1.86,6.678,6.678,0,0,1-2.332.979,12.8,12.8,0,0,1-2.773.293Z" transform="translate(-25.809 -17.563)" fill="#fff"/>
      </g>
    </g>
    <g id="Mask_Group_49" data-name="Mask Group 49" transform="translate(1201.68 299.524)" opacity="0.45" clip-path="url(#clip-path-6)">
      <path id="icons8-google-code-2" data-name="icons8-google-code" d="M30.227,30.227V86.253H52.012v3.113h-13.1L30.227,98.7H90.134l-8.68-9.338H68.35V86.253H90.134V30.227Zm5.446,6.225H84.688V80.028H35.673Zm17.1,7.1L41.885,56,40.013,58.24l1.872,2.237,10.892,12.45,3.914-4.474L47.757,58.24l8.935-10.213Zm14.806,0L63.67,48.027,72.6,58.24,63.67,68.454l3.914,4.474,10.892-12.45,1.872-2.237L78.476,56Z" transform="translate(-23.02 -30.227)" fill="#26e07f"/>
    </g>
    <g id="Mask_Group_50" data-name="Mask Group 50" transform="translate(519.622 116.146) rotate(-16)" opacity="0.45" clip-path="url(#clip-path-6)">
      <path id="icons8-google-code-3" data-name="icons8-google-code" d="M30.227,30.227V86.253H52.012v3.113h-13.1L30.227,98.7H90.134l-8.68-9.338H68.35V86.253H90.134V30.227Zm5.446,6.225H84.688V80.028H35.673Zm17.1,7.1L41.885,56,40.013,58.24l1.872,2.237,10.892,12.45,3.914-4.474L47.757,58.24l8.935-10.213Zm14.806,0L63.67,48.027,72.6,58.24,63.67,68.454l3.914,4.474,10.892-12.45,1.872-2.237L78.476,56Z" transform="translate(-23.02 -30.227)" fill="#26e07f"/>
    </g>
  </g>
</svg>
